<svg xmlns="http://www.w3.org/2000/svg" viewBox="0 0 1000 1000" width="1000" height="1000">
<g stroke-linejoin="round">
<path d="M431.3 288.3 L50.4 560.3 L50.4 579.9 L594.4 770.3 L949.1 517.1 L949.1 497.4 L937.9 465.6Z" fill="#7C8457" stroke="#28332E" stroke-width="5.0" stroke-linecap="round"/>
<path d="M431.3 288.3 L937.9 465.6 L949.1 497.4 L594.4 750.7 L50.4 560.3Z" fill="#A7AE7B" stroke="#28332E" stroke-width="5.0" stroke-linecap="round"/>
<path d="M704.9 574.1 L706.9 574.9 L708.7 575.9 L710.1 577.0 L711.1 578.2 L711.8 579.4 L712.0 580.7 L711.8 582.0 L711.3 583.3 L710.3 584.5 L709.0 585.7 L525.7 716.5 L524.1 717.5 L522.1 718.4 L519.9 719.1 L517.5 719.6 L515.0 720.0 L512.4 720.1 L509.8 720.0 L507.3 719.7 L504.8 719.2 L502.6 718.6 L142.2 592.4 L140.2 591.6 L138.5 590.6 L137.1 589.5 L136.0 588.3 L135.4 587.1 L135.1 585.8 L135.3 584.5 L135.9 583.2 L136.8 582.0 L138.1 580.9 L321.4 450.0 L323.1 449.0 L325.0 448.1 L327.2 447.4 L329.6 446.9 L332.2 446.6 L334.8 446.4 L337.4 446.5 L339.9 446.8 L342.3 447.3 L344.6 447.9Z" fill="#FFF8EA" stroke="#28332E" stroke-width="3.0" stroke-linecap="round"/>
<path d="M331.0 443.2 L718.5 578.9 L692.3 597.6 L304.8 461.9Z" fill="#E8344A" stroke="#28332E" stroke-width="3.0" stroke-linecap="round"/>
<path d="M309.9 501.6 L598.8 602.8" fill="none" stroke="#AEB2AF" stroke-width="5" stroke-linecap="round"/>
<path d="M278.9 523.7 L499.9 601.1" fill="none" stroke="#AEB2AF" stroke-width="5" stroke-linecap="round"/>
<path d="M248.0 545.8 L502.9 635.1" fill="none" stroke="#AEB2AF" stroke-width="5" stroke-linecap="round"/>
<path d="M517.3 657.4 L517.5 657.3 L518.0 657.0 L518.9 656.6 L520.2 656.1 L522.0 655.5 L524.1 655.0 L526.6 654.5 L529.3 654.2 L532.3 654.1 L535.3 654.2 L538.4 654.5 L541.4 655.0 L544.3 655.9 L546.8 656.9 L549.1 658.2 L550.9 659.7 L552.3 661.3 L553.1 663.0 L553.4 664.7 L553.1 666.4 L552.2 668.1 L550.8 669.6 L548.8 671.0 L546.3 672.3 L543.4 673.4 L540.0 674.3 L536.3 675.0 L532.3 675.5 L528.1 676.0 L523.8 676.3 L519.4 676.5 L515.0 676.8 L510.7 677.0 L506.6 677.2 L502.7 677.4 L499.1 677.7 L495.9 678.1 L493.0 678.5 L490.6 678.9 L488.6 679.4 L487.0 679.8 L485.9 680.2 L485.1 680.5 L484.7 680.7 L484.6 680.8 L484.7 680.7 L485.0 680.4 L485.3 680.0 L485.6 679.3 L485.9 678.4 L486.0 677.3 L486.0 676.0 L485.8 674.5 L485.3 672.9 L484.7 671.1 L483.8 669.2 L482.8 667.2 L481.7 665.1 L480.7 663.0 L479.6 660.8 L478.8 658.7 L478.1 656.6 L477.8 654.5 L477.9 652.5 L478.4 650.6 L479.4 648.9 L480.9 647.3 L482.9 645.9 L485.3 644.7 L488.1 643.7 L491.2 643.0 L494.6 642.5 L498.1 642.3 L501.5 642.4 L504.9 642.8 L508.1 643.4 L511.0 644.2 L513.5 645.3 L515.6 646.5 L517.3 647.8 L518.5 649.2 L519.2 650.7 L519.5 652.1 L519.5 653.4 L519.3 654.6 L518.8 655.6 L518.3 656.4 L517.8 657.0 L517.5 657.3Z" fill="#E8344A" stroke="#28332E" stroke-width="2.4" stroke-linecap="round"/>
<path d="M827.4 427.0 L828.1 427.3 L828.8 427.6 L829.3 428.1 L829.7 428.5 L829.9 429.0 L830.0 429.5 L830.0 429.9 L829.8 430.4 L829.4 430.9 L828.9 431.3 L707.5 518.0 L706.9 518.4 L706.1 518.7 L705.3 519.0 L704.4 519.1 L703.5 519.3 L702.5 519.3 L701.5 519.3 L700.6 519.2 L699.7 519.0 L698.8 518.8 L450.6 431.9 L449.9 431.6 L449.2 431.2 L448.7 430.8 L448.3 430.3 L448.1 429.9 L448.0 429.4 L448.1 428.9 L448.3 428.4 L448.6 428.0 L449.1 427.5 L570.5 340.8 L571.1 340.5 L571.9 340.1 L572.7 339.9 L573.6 339.7 L574.5 339.6 L575.5 339.5 L576.5 339.5 L577.4 339.7 L578.4 339.8 L579.2 340.1Z" fill="#D9DEDF" stroke="#28332E" stroke-width="3.0" stroke-linecap="round"/>
<path d="M757.3 422.7 L758.1 423.0 L758.7 423.4 L759.3 423.8 L759.6 424.2 L759.9 424.7 L760.0 425.2 L759.9 425.7 L759.7 426.2 L759.4 426.6 L758.9 427.0 L675.5 486.5 L674.9 486.9 L674.2 487.2 L673.4 487.5 L672.5 487.7 L671.5 487.8 L670.6 487.9 L669.6 487.8 L668.6 487.7 L667.7 487.6 L666.9 487.3 L615.9 469.4 L615.1 469.1 L614.5 468.8 L614.0 468.4 L613.6 467.9 L613.3 467.4 L613.2 467.0 L613.3 466.5 L613.5 466.0 L613.9 465.5 L614.3 465.1 L697.7 405.6 L698.3 405.2 L699.0 404.9 L699.8 404.7 L700.7 404.5 L701.7 404.3 L702.7 404.3 L703.6 404.3 L704.6 404.4 L705.5 404.6 L706.3 404.9Z" fill="#363833"/>
<path d="M475.5 430.4 L693.0 506.6" fill="none" stroke="#AEB2AF" stroke-width="2.5" stroke-linecap="round"/>
<path d="M153.5 548.2 L154.0 548.4 L154.4 548.7 L154.7 548.9 L155.0 549.2 L155.2 549.6 L155.2 549.9 L155.2 550.2 L155.0 550.5 L154.8 550.8 L154.5 551.1 L133.0 566.4 L132.6 566.7 L132.1 566.9 L131.6 567.0 L131.0 567.2 L130.4 567.3 L129.7 567.3 L129.1 567.3 L128.4 567.2 L127.8 567.1 L127.3 566.9 L96.7 556.2 L96.2 556.0 L95.7 555.7 L95.4 555.5 L95.1 555.2 L95.0 554.9 L94.9 554.5 L94.9 554.2 L95.1 553.9 L95.3 553.6 L95.7 553.3 L117.1 538.0 L117.5 537.8 L118.0 537.5 L118.5 537.4 L119.1 537.2 L119.8 537.2 L120.4 537.1 L121.1 537.1 L121.7 537.2 L122.3 537.3 L122.9 537.5Z" fill="#363833"/>
<path d="M612.4 708.9 L612.9 709.1 L613.3 709.3 L613.7 709.6 L614.0 709.9 L614.1 710.2 L614.2 710.6 L614.1 710.9 L614.0 711.2 L613.8 711.5 L613.4 711.8 L592.0 727.1 L591.6 727.3 L591.1 727.6 L590.6 727.7 L590.0 727.9 L589.3 727.9 L588.7 728.0 L588.0 727.9 L587.4 727.9 L586.8 727.8 L586.2 727.6 L555.6 716.9 L555.1 716.7 L554.7 716.4 L554.3 716.2 L554.1 715.9 L553.9 715.5 L553.9 715.2 L553.9 714.9 L554.0 714.6 L554.3 714.3 L554.6 714.0 L576.0 698.7 L576.4 698.4 L576.9 698.2 L577.5 698.1 L578.1 697.9 L578.7 697.8 L579.4 697.8 L580.0 697.8 L580.6 697.9 L581.3 698.0 L581.8 698.2Z" fill="#363833"/>
<path d="M556.1 248.8 L40.0 457.7 L40.0 477.4 L457.9 735.4 L938.5 540.8 L945.2 508.7 L945.2 489.1Z" fill="#13233F" stroke="#28332E" stroke-width="5.0" stroke-linecap="round"/>
<path d="M556.1 248.8 L945.2 489.1 L938.5 521.2 L457.9 715.8 L40.0 457.7Z" fill="#1C3259" stroke="#28332E" stroke-width="5.0" stroke-linecap="round"/>
<path d="M661.5 561.2 L663.0 562.3 L664.1 563.5 L664.9 564.7 L665.2 566.0 L665.1 567.3 L664.7 568.6 L663.8 569.8 L662.5 571.0 L661.0 572.0 L659.1 572.9 L410.7 673.4 L408.6 674.2 L406.2 674.7 L403.7 675.1 L401.1 675.3 L398.5 675.2 L396.0 675.0 L393.5 674.6 L391.2 674.0 L389.2 673.2 L387.4 672.2 L110.5 501.3 L109.0 500.2 L107.9 499.0 L107.2 497.8 L106.8 496.5 L106.9 495.2 L107.4 493.9 L108.3 492.7 L109.5 491.5 L111.1 490.5 L113.0 489.6 L361.3 389.0 L363.5 388.3 L365.8 387.7 L368.3 387.4 L370.9 387.2 L373.5 387.2 L376.1 387.5 L378.5 387.9 L380.8 388.5 L382.9 389.3 L384.7 390.3Z" fill="#FFF8EA" stroke="#28332E" stroke-width="3.0" stroke-linecap="round"/>
<path d="M374.2 383.8 L672.0 567.7 L636.5 582.0 L338.7 398.2Z" fill="#E8344A" stroke="#28332E" stroke-width="3.0" stroke-linecap="round"/>
<path d="M321.7 437.1 L543.7 574.2" fill="none" stroke="#AEB2AF" stroke-width="5" stroke-linecap="round"/>
<path d="M279.8 454.1 L449.5 558.9" fill="none" stroke="#AEB2AF" stroke-width="5" stroke-linecap="round"/>
<path d="M237.8 471.1 L433.7 592.0" fill="none" stroke="#AEB2AF" stroke-width="5" stroke-linecap="round"/>
<path d="M435.3 615.4 L435.5 615.4 L436.1 615.2 L437.2 614.9 L438.8 614.6 L440.8 614.3 L443.1 614.1 L445.7 614.0 L448.5 614.0 L451.5 614.3 L454.4 614.8 L457.2 615.5 L459.7 616.5 L462.0 617.7 L463.9 619.1 L465.3 620.6 L466.3 622.3 L466.7 624.0 L466.6 625.7 L465.9 627.4 L464.6 629.1 L462.9 630.5 L460.7 631.8 L458.0 632.9 L454.9 633.7 L451.5 634.4 L447.8 634.8 L443.8 634.9 L439.7 634.9 L435.4 634.8 L431.1 634.5 L426.7 634.1 L422.4 633.7 L418.1 633.3 L414.1 633.0 L410.2 632.7 L406.6 632.5 L403.3 632.4 L400.3 632.4 L397.7 632.4 L395.6 632.6 L393.8 632.8 L392.5 633.0 L391.6 633.2 L391.1 633.3 L390.9 633.4 L391.1 633.3 L391.5 633.1 L392.0 632.7 L392.7 632.1 L393.5 631.3 L394.2 630.3 L394.9 629.0 L395.5 627.6 L396.0 625.9 L396.3 624.1 L396.5 622.2 L396.7 620.1 L396.8 617.9 L396.9 615.7 L397.1 613.5 L397.5 611.3 L398.1 609.2 L398.9 607.2 L400.1 605.3 L401.6 603.6 L403.5 602.0 L405.8 600.7 L408.5 599.6 L411.5 598.8 L414.7 598.2 L418.1 598.0 L421.6 598.0 L425.1 598.3 L428.4 598.9 L431.4 599.7 L434.1 600.7 L436.4 601.9 L438.3 603.3 L439.6 604.7 L440.5 606.2 L440.9 607.8 L440.8 609.2 L440.3 610.6 L439.6 611.9 L438.7 613.0 L437.7 613.9 L436.8 614.6 L436.0 615.1 L435.5 615.4Z" fill="#E8344A" stroke="#28332E" stroke-width="2.4" stroke-linecap="round"/>
<path d="M860.3 436.7 L860.9 437.1 L861.3 437.5 L861.6 438.0 L861.7 438.5 L861.7 438.9 L861.5 439.4 L861.2 439.9 L860.7 440.3 L860.1 440.7 L859.4 441.0 L694.9 507.6 L694.1 507.9 L693.2 508.1 L692.3 508.3 L691.3 508.3 L690.4 508.3 L689.4 508.2 L688.5 508.1 L687.6 507.8 L686.8 507.5 L686.2 507.2 L495.5 389.5 L494.9 389.1 L494.5 388.6 L494.2 388.1 L494.1 387.7 L494.1 387.2 L494.3 386.7 L494.7 386.2 L495.1 385.8 L495.7 385.4 L496.4 385.1 L660.9 318.5 L661.7 318.2 L662.6 318.0 L663.5 317.8 L664.5 317.8 L665.5 317.8 L666.4 317.9 L667.4 318.0 L668.2 318.3 L669.0 318.6 L669.7 318.9Z" fill="#D9DEDF" stroke="#28332E" stroke-width="3.0" stroke-linecap="round"/>
<path d="M795.4 422.9 L795.9 423.3 L796.3 423.8 L796.6 424.2 L796.7 424.7 L796.7 425.2 L796.5 425.7 L796.2 426.1 L795.7 426.6 L795.1 427.0 L794.4 427.3 L681.5 473.0 L680.7 473.3 L679.9 473.5 L678.9 473.6 L678.0 473.7 L677.0 473.7 L676.0 473.6 L675.1 473.4 L674.2 473.2 L673.5 472.9 L672.8 472.5 L633.6 448.4 L633.1 447.9 L632.6 447.5 L632.4 447.0 L632.2 446.6 L632.3 446.1 L632.4 445.6 L632.8 445.1 L633.2 444.7 L633.8 444.3 L634.5 444.0 L747.4 398.3 L748.2 398.0 L749.1 397.8 L750.0 397.6 L751.0 397.6 L752.0 397.6 L752.9 397.7 L753.9 397.8 L754.7 398.1 L755.5 398.4 L756.2 398.7Z" fill="#363833"/>
<path d="M520.2 391.5 L687.3 494.7" fill="none" stroke="#AEB2AF" stroke-width="2.5" stroke-linecap="round"/>
<path d="M145.7 460.3 L146.1 460.6 L146.3 460.9 L146.5 461.2 L146.6 461.5 L146.6 461.9 L146.5 462.2 L146.2 462.5 L145.9 462.8 L145.5 463.0 L145.1 463.3 L116.0 475.0 L115.5 475.2 L114.9 475.3 L114.3 475.4 L113.6 475.5 L113.0 475.5 L112.4 475.4 L111.7 475.3 L111.2 475.1 L110.7 474.9 L110.2 474.7 L86.7 460.2 L86.3 459.9 L86.0 459.6 L85.9 459.3 L85.8 459.0 L85.8 458.7 L85.9 458.3 L86.1 458.0 L86.4 457.7 L86.8 457.5 L87.3 457.3 L116.3 445.5 L116.9 445.3 L117.5 445.2 L118.1 445.1 L118.7 445.1 L119.4 445.1 L120.0 445.1 L120.6 445.2 L121.2 445.4 L121.7 445.6 L122.2 445.8Z" fill="#363833"/>
<path d="M498.3 678.0 L498.6 678.3 L498.9 678.6 L499.1 678.9 L499.2 679.2 L499.2 679.6 L499.1 679.9 L498.8 680.2 L498.5 680.5 L498.1 680.7 L497.7 681.0 L468.6 692.7 L468.1 692.9 L467.5 693.0 L466.9 693.1 L466.2 693.2 L465.6 693.2 L465.0 693.1 L464.3 693.0 L463.8 692.8 L463.2 692.6 L462.8 692.4 L439.3 677.9 L438.9 677.6 L438.6 677.3 L438.5 677.0 L438.4 676.7 L438.4 676.4 L438.5 676.1 L438.7 675.7 L439.0 675.5 L439.4 675.2 L439.9 675.0 L468.9 663.2 L469.5 663.0 L470.1 662.9 L470.7 662.8 L471.3 662.8 L472.0 662.8 L472.6 662.8 L473.2 662.9 L473.8 663.1 L474.3 663.3 L474.8 663.5Z" fill="#363833"/>
<path d="M497.1 229.7 L52.7 476.4 L52.7 496.0 L546.2 718.2 L960.0 488.4 L960.0 468.8 L956.6 436.5Z" fill="#B8263A" stroke="#28332E" stroke-width="5.0" stroke-linecap="round"/>
<path d="M497.1 229.7 L956.6 436.5 L960.0 468.8 L546.2 698.6 L52.7 476.4Z" fill="#E8344A" stroke="#28332E" stroke-width="5.0" stroke-linecap="round"/>
<path d="M699.0 530.0 L700.8 530.9 L702.3 532.0 L703.4 533.2 L704.1 534.4 L704.5 535.7 L704.4 537.0 L703.9 538.3 L703.1 539.5 L701.8 540.7 L700.2 541.7 L486.4 660.5 L484.5 661.3 L482.4 662.1 L480.0 662.6 L477.5 663.0 L474.9 663.2 L472.3 663.2 L469.8 662.9 L467.3 662.5 L465.0 661.9 L462.9 661.1 L136.0 513.9 L134.2 512.9 L132.7 511.9 L131.6 510.7 L130.9 509.4 L130.5 508.2 L130.6 506.8 L131.1 505.6 L132.0 504.3 L133.2 503.2 L134.8 502.2 L348.6 383.4 L350.5 382.5 L352.7 381.8 L355.0 381.2 L357.5 380.9 L360.1 380.7 L362.7 380.7 L365.3 381.0 L367.7 381.4 L370.0 382.0 L372.1 382.8Z" fill="#FFF8EA" stroke="#28332E" stroke-width="3.0" stroke-linecap="round"/>
<path d="M359.7 377.3 L711.3 535.5 L680.8 552.5 L329.2 394.2Z" fill="#1C3259" stroke="#28332E" stroke-width="3.0" stroke-linecap="round"/>
<path d="M324.5 434.0 L586.7 552.0" fill="none" stroke="#AEB2AF" stroke-width="5" stroke-linecap="round"/>
<path d="M288.4 454.1 L488.9 544.3" fill="none" stroke="#AEB2AF" stroke-width="5" stroke-linecap="round"/>
<path d="M252.3 474.1 L483.7 578.2" fill="none" stroke="#AEB2AF" stroke-width="5" stroke-linecap="round"/>
<path d="M492.5 601.2 L492.7 601.2 L493.3 600.9 L494.3 600.5 L495.7 600.1 L497.6 599.7 L499.8 599.3 L502.4 599.0 L505.2 598.8 L508.1 598.9 L511.1 599.1 L514.1 599.6 L517.0 600.4 L519.6 601.4 L521.9 602.6 L523.8 604.0 L525.3 605.6 L526.2 607.2 L526.6 609.0 L526.5 610.7 L525.7 612.4 L524.5 614.0 L522.7 615.4 L520.4 616.7 L517.6 617.8 L514.4 618.7 L510.9 619.4 L507.0 619.8 L503.0 620.2 L498.7 620.3 L494.3 620.4 L489.9 620.4 L485.5 620.3 L481.2 620.3 L477.0 620.2 L473.1 620.2 L469.5 620.3 L466.2 620.5 L463.2 620.7 L460.7 621.0 L458.6 621.3 L457.0 621.6 L455.7 621.9 L454.9 622.2 L454.4 622.4 L454.3 622.4 L454.4 622.4 L454.7 622.1 L455.2 621.7 L455.7 621.0 L456.2 620.2 L456.6 619.1 L456.9 617.8 L457.0 616.3 L456.9 614.7 L456.7 612.9 L456.3 610.9 L455.9 608.9 L455.3 606.7 L454.7 604.5 L454.2 602.3 L453.9 600.2 L453.8 598.0 L454.0 595.9 L454.5 594.0 L455.5 592.2 L456.9 590.5 L458.8 589.0 L461.1 587.7 L463.8 586.7 L466.8 585.9 L470.1 585.3 L473.5 585.1 L477.0 585.1 L480.5 585.4 L483.7 586.0 L486.8 586.8 L489.4 587.8 L491.7 589.0 L493.5 590.3 L494.8 591.7 L495.6 593.2 L496.0 594.7 L496.0 596.1 L495.7 597.4 L495.1 598.6 L494.4 599.5 L493.7 600.3 L493.1 600.8 L492.7 601.1Z" fill="#E8344A" stroke="#28332E" stroke-width="2.4" stroke-linecap="round"/>
<path d="M856.4 391.4 L857.1 391.8 L857.6 392.2 L858.0 392.6 L858.3 393.1 L858.4 393.6 L858.4 394.1 L858.2 394.5 L857.9 395.0 L857.4 395.4 L856.8 395.8 L715.2 474.5 L714.5 474.8 L713.7 475.1 L712.8 475.3 L711.9 475.4 L710.9 475.5 L709.9 475.5 L709.0 475.4 L708.1 475.2 L707.2 475.0 L706.4 474.7 L481.3 373.3 L480.6 373.0 L480.0 372.6 L479.6 372.1 L479.4 371.7 L479.2 371.2 L479.2 370.7 L479.4 370.2 L479.8 369.8 L480.2 369.3 L480.8 368.9 L622.4 290.3 L623.2 290.0 L624.0 289.7 L624.8 289.5 L625.8 289.3 L626.7 289.3 L627.7 289.3 L628.7 289.4 L629.6 289.5 L630.5 289.8 L631.2 290.1Z" fill="#D9DEDF" stroke="#28332E" stroke-width="3.0" stroke-linecap="round"/>
<path d="M787.9 382.9 L788.6 383.3 L789.1 383.7 L789.6 384.1 L789.8 384.6 L790.0 385.1 L789.9 385.6 L789.8 386.0 L789.4 386.5 L789.0 386.9 L788.4 387.3 L691.2 441.3 L690.5 441.6 L689.7 441.9 L688.8 442.1 L687.8 442.3 L686.9 442.3 L685.9 442.3 L684.9 442.2 L684.0 442.1 L683.2 441.8 L682.4 441.5 L636.1 420.7 L635.4 420.3 L634.9 419.9 L634.5 419.5 L634.2 419.0 L634.1 418.6 L634.1 418.1 L634.3 417.6 L634.6 417.1 L635.1 416.7 L635.7 416.3 L732.8 362.3 L733.6 362.0 L734.4 361.7 L735.2 361.5 L736.2 361.4 L737.1 361.3 L738.1 361.3 L739.1 361.4 L740.0 361.6 L740.9 361.8 L741.6 362.1Z" fill="#363833"/>
<path d="M506.3 373.4 L703.7 462.3" fill="none" stroke="#AEB2AF" stroke-width="2.5" stroke-linecap="round"/>
<path d="M157.9 470.7 L158.4 470.9 L158.8 471.2 L159.0 471.5 L159.2 471.8 L159.3 472.1 L159.3 472.5 L159.2 472.8 L159.0 473.1 L158.6 473.4 L158.2 473.6 L133.3 487.5 L132.8 487.7 L132.2 487.9 L131.7 488.1 L131.0 488.1 L130.4 488.2 L129.7 488.2 L129.1 488.1 L128.5 488.0 L127.9 487.9 L127.4 487.7 L99.6 475.2 L99.2 474.9 L98.8 474.7 L98.5 474.4 L98.4 474.1 L98.3 473.7 L98.3 473.4 L98.4 473.1 L98.6 472.8 L98.9 472.5 L99.3 472.2 L124.3 458.4 L124.8 458.1 L125.3 457.9 L125.9 457.8 L126.5 457.7 L127.2 457.7 L127.8 457.7 L128.5 457.7 L129.1 457.8 L129.7 458.0 L130.2 458.2Z" fill="#363833"/>
<path d="M574.3 658.1 L574.8 658.4 L575.1 658.7 L575.4 658.9 L575.6 659.3 L575.7 659.6 L575.7 659.9 L575.5 660.2 L575.3 660.5 L575.0 660.8 L574.6 661.1 L549.6 675.0 L549.2 675.2 L548.6 675.4 L548.0 675.5 L547.4 675.6 L546.8 675.6 L546.1 675.6 L545.5 675.6 L544.9 675.5 L544.3 675.3 L543.8 675.1 L516.0 662.6 L515.6 662.4 L515.2 662.1 L514.9 661.8 L514.7 661.5 L514.6 661.2 L514.7 660.9 L514.8 660.5 L515.0 660.2 L515.3 659.9 L515.7 659.7 L540.7 645.8 L541.2 645.6 L541.7 645.4 L542.3 645.3 L542.9 645.2 L543.6 645.1 L544.2 645.1 L544.8 645.2 L545.5 645.3 L546.0 645.5 L546.6 645.7Z" fill="#363833"/>
</g></svg>