<svg xmlns="http://www.w3.org/2000/svg" viewBox="0 0 1000 1000" width="1000" height="1000">
<g stroke-linejoin="round">
<path d="M517.3 252.1 L507.9 252.4 L498.8 253.4 L490.0 255.1 L481.9 257.5 L474.6 260.5 L468.4 264.0 L52.1 540.3 L47.0 544.2 L43.3 548.6 L40.9 553.1 L40.0 557.8 L40.0 580.9 L40.6 585.6 L42.6 590.2 L46.1 594.6 L50.8 598.6 L56.8 602.3 L63.9 605.4 L292.2 691.4 L300.1 693.9 L308.8 695.8 L317.9 697.0 L327.3 697.4 L336.6 697.2 L345.8 696.1 L354.6 694.4 L362.7 692.0 L370.0 689.0 L376.2 685.5 L792.5 409.3 L797.6 405.3 L801.3 401.0 L803.7 396.4 L804.6 391.8 L804.6 368.6 L804.0 363.9 L802.0 359.3 L798.5 355.0 L793.8 350.9 L787.8 347.3 L780.7 344.2 L552.4 258.1 L544.5 255.6 L535.8 253.7 L526.7 252.5Z" fill="#13233F" stroke="#28332E" stroke-width="5.0" stroke-linecap="round"/>
<path d="M780.7 344.2 L787.8 347.3 L793.8 350.9 L798.5 355.0 L802.0 359.3 L804.0 363.9 L804.6 368.6 L803.7 373.3 L801.3 377.9 L797.6 382.2 L792.5 386.2 L376.2 662.4 L370.0 665.9 L362.7 668.9 L354.6 671.3 L345.8 673.0 L336.6 674.0 L327.3 674.3 L317.9 673.9 L308.8 672.7 L300.1 670.8 L292.2 668.3 L63.9 582.3 L56.8 579.2 L50.8 575.5 L46.1 571.5 L42.6 567.1 L40.6 562.5 L40.0 557.8 L40.9 553.1 L43.3 548.6 L47.0 544.2 L52.1 540.3 L468.4 264.0 L474.6 260.5 L481.9 257.5 L490.0 255.1 L498.8 253.4 L507.9 252.4 L517.3 252.1 L526.7 252.5 L535.8 253.7 L544.5 255.6 L552.4 258.1Z" fill="#1C3259" stroke="#28332E" stroke-width="5.0" stroke-linecap="round"/>
<path d="M771.5 347.3 L777.7 350.1 L783.0 353.3 L787.2 356.9 L790.3 360.7 L792.1 364.8 L792.6 368.9 L791.8 373.1 L789.7 377.1 L786.4 380.9 L781.9 384.4 L369.9 657.8 L364.4 660.9 L358.0 663.6 L350.8 665.7 L343.1 667.2 L335.0 668.1 L326.7 668.3 L318.4 667.9 L310.4 666.9 L302.8 665.2 L295.7 663.0 L73.1 579.1 L66.9 576.4 L61.6 573.2 L57.3 569.6 L54.3 565.7 L52.5 561.7 L52.0 557.5 L52.8 553.4 L54.9 549.4 L58.2 545.5 L62.7 542.0 L474.7 268.6 L480.2 265.5 L486.6 262.9 L493.8 260.8 L501.5 259.3 L509.6 258.4 L517.9 258.1 L526.2 258.5 L534.2 259.5 L541.8 261.2 L548.8 263.4Z" fill="#363833"/>
<path d="M792.6 359.7 L794.3 360.4 L795.7 361.3 L796.8 362.2 L797.6 363.3 L798.1 364.4 L798.3 365.5 L798.0 366.6 L797.5 367.6 L796.6 368.6 L795.4 369.6 L345.1 668.4 L343.7 669.2 L342.0 669.9 L340.0 670.5 L338.0 670.9 L335.8 671.1 L333.6 671.2 L331.4 671.1 L329.3 670.8 L327.2 670.3 L325.4 669.7 L52.0 566.7 L50.3 566.0 L48.9 565.1 L47.8 564.2 L46.9 563.2 L46.5 562.1 L46.3 561.0 L46.5 559.9 L47.1 558.8 L48.0 557.8 L49.2 556.8 L499.5 258.1 L500.9 257.2 L502.6 256.5 L504.5 256.0 L506.6 255.6 L508.8 255.3 L511.0 255.3 L513.2 255.4 L515.3 255.6 L517.4 256.1 L519.2 256.7Z" fill="#FFF8EA" stroke="#28332E" stroke-width="3.0" stroke-linecap="round"/>
<path d="M792.6 359.7 L794.3 360.4 L795.7 361.3 L796.8 362.2 L797.6 363.3 L798.1 364.4 L798.3 365.5 L798.0 366.6 L797.5 367.6 L796.6 368.6 L795.4 369.6 L756.3 395.5 L754.9 396.3 L753.2 397.0 L751.3 397.6 L749.2 398.0 L747.0 398.3 L744.8 398.3 L742.6 398.2 L740.5 397.9 L738.4 397.5 L736.6 396.9 L463.2 293.9 L461.5 293.2 L460.1 292.3 L459.0 291.3 L458.2 290.3 L457.7 289.2 L457.5 288.1 L457.8 287.0 L458.3 286.0 L459.2 284.9 L460.4 284.0 L499.5 258.1 L500.9 257.2 L502.6 256.5 L504.5 256.0 L506.6 255.6 L508.8 255.3 L511.0 255.3 L513.2 255.4 L515.3 255.6 L517.4 256.1 L519.2 256.7Z" fill="#1C3259"/>
<path d="M535.3 296.8 L533.3 297.9 L531.0 298.9 L528.5 299.8 L525.8 300.5 L522.9 301.0 L519.9 301.3 L516.9 301.4 L513.8 301.3 L510.8 301.0 L508.0 300.5 L505.2 299.9 L502.7 299.1 L500.4 298.1 L498.3 296.9 L496.6 295.7 L495.2 294.3 L494.2 292.9 L493.6 291.4 L493.4 289.9 L493.6 288.3 L494.1 286.8 L495.1 285.4 L496.4 284.0 L498.1 282.7 L500.1 281.6 L502.3 280.6 L504.9 279.7 L507.6 279.0 L510.5 278.5 L513.4 278.2 L516.5 278.1 L519.5 278.2 L522.5 278.5 L525.4 279.0 L528.2 279.6 L530.7 280.4 L533.0 281.4 L535.0 282.6 L536.8 283.8 L538.1 285.2 L539.1 286.6 L539.7 288.1 L540.0 289.6 L539.8 291.2 L539.2 292.7 L538.3 294.1 L537.0 295.5Z" fill="#FFF8EA"/>
<path d="M519.8 287.7 L520.0 287.5 L520.3 287.2 L520.7 286.7 L520.9 286.2 L521.1 285.5 L521.2 284.8 L521.1 284.0 L520.7 283.2 L520.1 282.3 L519.2 281.6 L518.1 280.9 L516.7 280.3 L515.1 279.8 L513.4 279.4 L511.5 279.2 L509.5 279.1 L507.6 279.1 L505.7 279.4 L503.9 279.7 L502.3 280.3 L500.9 280.9 L499.7 281.7 L498.8 282.6 L498.2 283.5 L497.8 284.6 L497.7 285.7 L497.8 286.9 L498.1 288.1 L498.5 289.3 L499.0 290.5 L499.5 291.7 L500.0 292.9 L500.5 294.0 L500.9 295.1 L501.2 296.1 L501.4 297.0 L501.4 297.9 L501.4 298.6 L501.3 299.2 L501.1 299.7 L500.9 300.1 L500.7 300.3 L500.5 300.5 L500.5 300.5 L519.7 287.7Z" fill="#E8344A"/>
<path d="M500.5 300.5 L500.8 300.4 L501.2 300.2 L501.9 300.0 L502.8 299.8 L503.9 299.5 L505.3 299.3 L506.9 299.1 L508.7 298.9 L510.8 298.8 L513.0 298.7 L515.3 298.6 L517.7 298.6 L520.2 298.5 L522.6 298.4 L525.1 298.2 L527.4 298.0 L529.7 297.8 L531.8 297.4 L533.7 296.9 L535.4 296.4 L536.9 295.7 L538.0 294.9 L538.9 294.1 L539.4 293.1 L539.7 292.2 L539.6 291.2 L539.2 290.2 L538.5 289.3 L537.5 288.5 L536.3 287.7 L534.9 287.1 L533.4 286.6 L531.7 286.3 L530.0 286.1 L528.3 286.0 L526.6 286.1 L525.0 286.2 L523.6 286.4 L522.4 286.7 L521.4 287.0 L520.7 287.3 L520.1 287.5 L519.8 287.7 L519.7 287.7 L500.5 300.5Z" fill="#1C3259"/>
<path d="M519.7 287.7 L519.8 287.7 L520.1 287.5 L520.7 287.3 L521.4 287.0 L522.4 286.7 L523.6 286.4 L525.0 286.2 L526.6 286.1 L528.3 286.0 L530.0 286.1 L531.7 286.3 L533.4 286.6 L534.9 287.1 L536.3 287.7 L537.5 288.5 L538.5 289.3 L539.2 290.2 L539.6 291.2 L539.7 292.2 L539.4 293.1 L538.9 294.1 L538.0 294.9 L536.9 295.7 L535.4 296.4 L533.7 296.9 L531.8 297.4 L529.7 297.8 L527.4 298.0 L525.1 298.2 L522.6 298.4 L520.2 298.5 L517.7 298.6 L515.3 298.6 L513.0 298.7 L510.8 298.8 L508.7 298.9 L506.9 299.1 L505.3 299.3 L503.9 299.5 L502.8 299.8 L501.9 300.0 L501.2 300.2 L500.8 300.4 L500.5 300.5 L500.5 300.5 L500.5 300.5 L500.7 300.3 L500.9 300.1 L501.1 299.7 L501.3 299.2 L501.4 298.6 L501.4 297.9 L501.4 297.0 L501.2 296.1 L500.9 295.1 L500.5 294.0 L500.0 292.9 L499.5 291.7 L499.0 290.5 L498.5 289.3 L498.1 288.1 L497.8 286.9 L497.7 285.7 L497.8 284.6 L498.2 283.5 L498.8 282.6 L499.7 281.7 L500.9 280.9 L502.3 280.3 L503.9 279.7 L505.7 279.4 L507.6 279.1 L509.5 279.1 L511.5 279.2 L513.4 279.4 L515.1 279.8 L516.7 280.3 L518.1 280.9 L519.2 281.6 L520.1 282.3 L520.7 283.2 L521.1 284.0 L521.2 284.8 L521.1 285.5 L520.9 286.2 L520.7 286.7 L520.3 287.2 L520.0 287.5 L519.8 287.7Z" fill="none" stroke="#28332E" stroke-width="1.2" stroke-linecap="round"/>
<path d="M513.6 287.1 L513.0 287.5 L512.3 287.8 L511.6 288.1 L510.8 288.3 L510.1 288.5 L509.3 288.6 L508.5 288.6 L507.8 288.6 L507.2 288.5 L506.6 288.3 L506.1 288.1 L505.8 287.8 L505.5 287.5 L505.4 287.1 L505.3 286.7 L505.4 286.3 L505.6 285.9 L506.0 285.4 L506.4 285.0 L506.9 284.6 L507.5 284.3 L508.2 283.9 L508.9 283.7 L509.7 283.4 L510.5 283.3 L511.3 283.2 L512.0 283.1 L512.7 283.2 L513.3 283.3 L513.9 283.5 L514.4 283.7 L514.8 284.0 L515.0 284.3 L515.2 284.7 L515.2 285.1 L515.1 285.5 L514.9 285.9 L514.6 286.3 L514.1 286.7ZM511.9 286.5 L511.5 286.7 L511.1 286.9 L510.6 287.1 L510.2 287.3 L509.8 287.4 L509.3 287.5 L508.9 287.5 L508.6 287.5 L508.2 287.5 L508.0 287.4 L507.7 287.3 L507.6 287.2 L507.5 287.0 L507.5 286.8 L507.5 286.5 L507.6 286.3 L507.8 286.0 L508.1 285.8 L508.3 285.5 L508.7 285.3 L509.1 285.0 L509.5 284.8 L509.9 284.6 L510.4 284.5 L510.8 284.4 L511.2 284.3 L511.6 284.2 L512.0 284.2 L512.3 284.3 L512.6 284.3 L512.8 284.5 L513.0 284.6 L513.0 284.8 L513.1 285.0 L513.0 285.2 L512.9 285.5 L512.7 285.7 L512.5 286.0 L512.2 286.2Z" fill="#FFF8EA" fill-rule="evenodd"/>
<path d="M511.7 284.9 L511.7 285.0 L511.8 285.0 L511.8 285.1 L511.9 285.1 L511.9 285.1 L511.9 285.2 L511.9 285.2 L511.9 285.3 L511.8 285.3 L511.8 285.4 L509.7 286.8 L509.6 286.8 L509.6 286.8 L509.5 286.8 L509.4 286.9 L509.3 286.9 L509.2 286.9 L509.1 286.9 L509.0 286.9 L508.9 286.8 L508.9 286.8 L508.9 286.8 L508.8 286.8 L508.7 286.7 L508.7 286.7 L508.7 286.7 L508.6 286.6 L508.6 286.6 L508.6 286.5 L508.7 286.5 L508.7 286.4 L508.8 286.4 L510.9 285.0 L510.9 285.0 L511.0 284.9 L511.1 284.9 L511.2 284.9 L511.2 284.9 L511.3 284.9 L511.4 284.9 L511.5 284.9 L511.6 284.9 L511.7 284.9Z" fill="#FFF8EA"/>
<path d="M528.6 289.0 L530.5 289.7 L524.5 293.7 L526.7 294.5 L525.3 295.3 L519.2 293.0 L520.5 292.1 L522.6 292.9 L526.7 290.2 L524.1 290.2 L525.8 289.0Z" fill="#FFF8EA"/>
<path d="M657.0 335.3 L657.4 335.5 L657.8 335.7 L658.1 336.0 L658.3 336.2 L658.4 336.5 L658.4 336.8 L658.4 337.0 L658.2 337.3 L658.0 337.6 L657.7 337.8 L652.6 341.2 L652.2 341.4 L651.8 341.6 L651.3 341.7 L650.8 341.8 L650.3 341.9 L649.7 341.9 L649.2 341.9 L648.6 341.8 L648.1 341.7 L647.7 341.5 L552.7 305.7 L552.3 305.6 L551.9 305.3 L551.6 305.1 L551.4 304.9 L551.3 304.6 L551.3 304.3 L551.3 304.0 L551.5 303.8 L551.7 303.5 L552.0 303.3 L557.1 299.9 L557.4 299.7 L557.9 299.5 L558.4 299.4 L558.9 299.3 L559.4 299.2 L560.0 299.2 L560.5 299.2 L561.0 299.3 L561.6 299.4 L562.0 299.5Z" fill="#FFF8EA"/>
<path d="M595.0 367.9 L597.0 368.8 L598.8 369.8 L600.2 371.0 L601.2 372.3 L601.8 373.7 L602.0 375.1 L601.7 376.4 L601.0 377.8 L599.9 379.0 L598.4 380.2 L575.3 395.6 L573.4 396.6 L571.3 397.5 L568.9 398.2 L566.3 398.7 L563.6 399.0 L560.9 399.1 L558.1 399.0 L555.4 398.6 L552.9 398.1 L550.6 397.3 L416.0 346.6 L413.9 345.7 L412.1 344.6 L410.7 343.4 L409.7 342.1 L409.1 340.8 L409.0 339.4 L409.2 338.0 L409.9 336.7 L411.0 335.4 L412.5 334.2 L435.7 318.9 L437.5 317.8 L439.6 317.0 L442.0 316.3 L444.6 315.8 L447.3 315.5 L450.1 315.4 L452.8 315.5 L455.5 315.8 L458.0 316.4 L460.4 317.1Z" fill="#FFFFFF" stroke="#28332E" stroke-width="1.4" stroke-linecap="round"/>
<path d="M572.5 369.1 L572.9 369.3 L573.2 369.5 L573.5 369.7 L573.7 370.0 L573.8 370.3 L573.9 370.5 L573.8 370.8 L573.7 371.1 L573.5 371.3 L573.2 371.6 L571.8 372.5 L571.4 372.7 L571.0 372.9 L570.5 373.0 L570.0 373.1 L569.5 373.2 L568.9 373.2 L568.4 373.2 L567.8 373.1 L567.3 373.0 L566.9 372.8 L446.0 327.3 L445.6 327.1 L445.2 326.9 L444.9 326.6 L444.7 326.4 L444.6 326.1 L444.6 325.8 L444.6 325.6 L444.8 325.3 L445.0 325.0 L445.3 324.8 L446.6 323.9 L447.0 323.7 L447.4 323.5 L447.9 323.4 L448.4 323.3 L449.0 323.2 L449.5 323.2 L450.1 323.2 L450.6 323.3 L451.1 323.4 L451.6 323.6Z" fill="#AEB2AF"/>
<path d="M525.9 366.1 L526.3 366.3 L526.7 366.5 L526.9 366.8 L527.2 367.0 L527.3 367.3 L527.3 367.6 L527.3 367.9 L527.1 368.1 L526.9 368.4 L526.6 368.6 L525.2 369.5 L524.9 369.7 L524.4 369.9 L524.0 370.0 L523.4 370.1 L522.9 370.2 L522.4 370.2 L521.8 370.2 L521.3 370.1 L520.8 370.0 L520.3 369.9 L432.0 336.6 L431.5 336.4 L431.2 336.2 L430.9 335.9 L430.7 335.7 L430.6 335.4 L430.6 335.1 L430.6 334.9 L430.7 334.6 L431.0 334.3 L431.3 334.1 L432.6 333.2 L433.0 333.0 L433.4 332.8 L433.9 332.7 L434.4 332.6 L435.0 332.5 L435.5 332.5 L436.1 332.5 L436.6 332.6 L437.1 332.7 L437.6 332.9Z" fill="#AEB2AF"/>
<path d="M634.2 443.4 L636.3 444.3 L638.1 445.4 L639.5 446.6 L640.5 447.9 L641.1 449.2 L641.2 450.6 L641.0 452.0 L640.3 453.3 L639.2 454.6 L637.7 455.8 L628.6 461.8 L626.7 462.9 L624.6 463.7 L622.2 464.4 L619.6 465.0 L616.9 465.3 L614.2 465.3 L611.4 465.2 L608.7 464.9 L606.2 464.3 L603.8 463.6 L498.8 424.0 L496.8 423.1 L495.0 422.0 L493.6 420.8 L492.6 419.5 L492.0 418.2 L491.8 416.8 L492.1 415.4 L492.8 414.1 L493.9 412.8 L495.4 411.6 L504.5 405.6 L506.3 404.6 L508.5 403.7 L510.9 403.0 L513.4 402.5 L516.1 402.2 L518.9 402.1 L521.7 402.2 L524.3 402.6 L526.9 403.1 L529.2 403.9Z" fill="#E8344A"/>
<path d="M616.2 446.3 L616.6 446.5 L616.9 446.7 L617.2 447.0 L617.4 447.2 L617.5 447.5 L617.6 447.8 L617.5 448.0 L617.4 448.3 L617.2 448.6 L616.9 448.8 L615.5 449.7 L615.1 449.9 L614.7 450.1 L614.2 450.2 L613.7 450.3 L613.2 450.4 L612.6 450.4 L612.1 450.4 L611.5 450.3 L611.0 450.2 L610.6 450.1 L514.8 414.0 L514.4 413.8 L514.1 413.6 L513.8 413.3 L513.6 413.1 L513.5 412.8 L513.4 412.5 L513.5 412.3 L513.6 412.0 L513.8 411.7 L514.1 411.5 L515.5 410.6 L515.9 410.4 L516.3 410.2 L516.8 410.1 L517.3 410.0 L517.8 409.9 L518.4 409.9 L518.9 409.9 L519.5 410.0 L520.0 410.1 L520.4 410.3Z" fill="#F7C1C8"/>
<path d="M521.8 447.2 L523.8 448.1 L525.6 449.2 L527.0 450.4 L528.0 451.7 L528.6 453.0 L528.8 454.4 L528.5 455.8 L527.8 457.1 L526.7 458.4 L525.2 459.6 L488.1 484.2 L486.2 485.3 L484.1 486.2 L481.7 486.9 L479.1 487.4 L476.4 487.7 L473.7 487.7 L470.9 487.6 L468.2 487.3 L465.7 486.7 L463.3 486.0 L299.2 424.1 L297.1 423.2 L295.3 422.1 L293.9 420.9 L292.9 419.6 L292.3 418.3 L292.1 416.9 L292.4 415.5 L293.1 414.2 L294.2 412.9 L295.7 411.8 L332.9 387.1 L334.7 386.1 L336.8 385.2 L339.2 384.5 L341.8 384.0 L344.5 383.7 L347.3 383.6 L350.0 383.7 L352.7 384.1 L355.2 384.6 L357.6 385.4Z" fill="#FFFFFF" stroke="#28332E" stroke-width="1.4" stroke-linecap="round"/>
<path d="M494.8 446.8 L495.2 447.0 L495.6 447.2 L495.9 447.4 L496.1 447.7 L496.2 448.0 L496.2 448.2 L496.2 448.5 L496.0 448.8 L495.8 449.0 L495.5 449.3 L494.2 450.2 L493.8 450.4 L493.4 450.6 L492.9 450.7 L492.4 450.8 L491.8 450.9 L491.3 450.9 L490.7 450.8 L490.2 450.8 L489.7 450.7 L489.2 450.5 L343.2 395.5 L342.8 395.3 L342.4 395.1 L342.1 394.9 L341.9 394.6 L341.8 394.3 L341.8 394.1 L341.8 393.8 L342.0 393.5 L342.2 393.3 L342.5 393.0 L343.8 392.1 L344.2 391.9 L344.6 391.7 L345.1 391.6 L345.6 391.5 L346.2 391.4 L346.7 391.4 L347.3 391.4 L347.8 391.5 L348.3 391.6 L348.8 391.8Z" fill="#AEB2AF"/>
<path d="M442.3 441.6 L442.8 441.8 L443.1 442.0 L443.4 442.2 L443.6 442.5 L443.7 442.8 L443.7 443.0 L443.7 443.3 L443.5 443.6 L443.3 443.8 L443.0 444.1 L441.7 445.0 L441.3 445.2 L440.9 445.4 L440.4 445.5 L439.9 445.6 L439.3 445.7 L438.8 445.7 L438.2 445.6 L437.7 445.6 L437.2 445.5 L436.7 445.3 L329.2 404.8 L328.7 404.6 L328.4 404.4 L328.1 404.2 L327.9 403.9 L327.8 403.6 L327.8 403.4 L327.8 403.1 L327.9 402.8 L328.2 402.6 L328.5 402.3 L329.8 401.4 L330.2 401.2 L330.6 401.0 L331.1 400.9 L331.6 400.8 L332.2 400.7 L332.7 400.7 L333.3 400.7 L333.8 400.8 L334.3 400.9 L334.8 401.1Z" fill="#AEB2AF"/>
<path d="M466.8 465.4 L467.2 465.6 L467.6 465.8 L467.8 466.0 L468.0 466.3 L468.2 466.6 L468.2 466.8 L468.1 467.1 L468.0 467.4 L467.8 467.6 L467.5 467.9 L466.1 468.8 L465.8 469.0 L465.3 469.2 L464.9 469.3 L464.3 469.4 L463.8 469.5 L463.2 469.5 L462.7 469.4 L462.2 469.4 L461.7 469.3 L461.2 469.1 L315.1 414.1 L314.7 413.9 L314.4 413.7 L314.1 413.5 L313.9 413.2 L313.8 412.9 L313.7 412.7 L313.8 412.4 L313.9 412.1 L314.2 411.9 L314.4 411.6 L315.8 410.7 L316.2 410.5 L316.6 410.3 L317.1 410.2 L317.6 410.1 L318.1 410.0 L318.7 410.0 L319.2 410.0 L319.8 410.1 L320.3 410.2 L320.8 410.4Z" fill="#AEB2AF"/>
<path d="M517.4 520.9 L519.5 521.8 L521.2 522.9 L522.6 524.1 L523.7 525.4 L524.3 526.7 L524.4 528.1 L524.2 529.5 L523.5 530.8 L522.4 532.1 L520.9 533.3 L511.7 539.3 L509.9 540.4 L507.8 541.3 L505.4 542.0 L502.8 542.5 L500.1 542.8 L497.3 542.9 L494.6 542.7 L491.9 542.4 L489.4 541.8 L487.0 541.1 L411.6 512.7 L409.6 511.8 L407.8 510.7 L406.4 509.5 L405.4 508.2 L404.8 506.8 L404.6 505.5 L404.9 504.1 L405.6 502.7 L406.7 501.5 L408.2 500.3 L417.3 494.3 L419.1 493.2 L421.3 492.3 L423.6 491.6 L426.2 491.1 L428.9 490.8 L431.7 490.7 L434.4 490.9 L437.1 491.2 L439.7 491.8 L442.0 492.5Z" fill="#E8344A"/>
<path d="M503.8 525.5 L504.2 525.7 L504.6 525.9 L504.8 526.2 L505.0 526.4 L505.2 526.7 L505.2 527.0 L505.1 527.2 L505.0 527.5 L504.8 527.8 L504.5 528.0 L503.1 528.9 L502.8 529.1 L502.3 529.3 L501.9 529.4 L501.3 529.5 L500.8 529.6 L500.2 529.6 L499.7 529.6 L499.2 529.5 L498.6 529.4 L498.2 529.2 L427.6 502.6 L427.2 502.5 L426.8 502.3 L426.6 502.0 L426.4 501.8 L426.2 501.5 L426.2 501.2 L426.3 500.9 L426.4 500.7 L426.6 500.4 L426.9 500.2 L428.3 499.3 L428.6 499.1 L429.1 498.9 L429.5 498.8 L430.1 498.6 L430.6 498.6 L431.2 498.6 L431.7 498.6 L432.2 498.7 L432.7 498.8 L433.2 498.9Z" fill="#F7C1C8"/>
<path d="M435.2 547.0 L435.3 546.9 L435.7 546.8 L436.3 546.5 L437.2 546.2 L438.4 545.8 L439.8 545.5 L441.4 545.2 L443.2 545.1 L445.1 545.0 L447.2 545.1 L449.2 545.3 L451.1 545.7 L452.9 546.3 L454.6 547.0 L456.0 547.9 L457.1 548.9 L457.9 550.0 L458.4 551.1 L458.5 552.2 L458.2 553.3 L457.5 554.4 L456.5 555.4 L455.2 556.3 L453.5 557.1 L451.5 557.7 L449.3 558.3 L446.8 558.7 L444.2 559.0 L441.4 559.3 L438.6 559.4 L435.7 559.6 L432.8 559.6 L430.0 559.7 L427.3 559.8 L424.7 560.0 L422.4 560.1 L420.2 560.3 L418.4 560.5 L416.8 560.8 L415.4 561.0 L414.4 561.3 L413.6 561.5 L413.1 561.7 L412.8 561.9 L412.7 561.9 L412.8 561.9 L413.0 561.7 L413.2 561.4 L413.5 561.0 L413.7 560.4 L413.8 559.7 L413.9 558.8 L413.8 557.9 L413.6 556.8 L413.2 555.6 L412.8 554.3 L412.2 553.0 L411.6 551.6 L411.0 550.2 L410.4 548.8 L409.9 547.4 L409.6 546.0 L409.5 544.6 L409.6 543.4 L410.1 542.1 L410.8 541.0 L411.9 540.0 L413.2 539.1 L414.9 538.3 L416.7 537.7 L418.8 537.3 L421.0 537.0 L423.3 536.9 L425.6 537.0 L427.8 537.3 L429.8 537.7 L431.7 538.3 L433.3 539.0 L434.6 539.8 L435.6 540.7 L436.3 541.7 L436.8 542.6 L436.9 543.5 L436.8 544.4 L436.6 545.2 L436.3 545.8 L435.9 546.3 L435.6 546.7 L435.3 546.9Z" fill="#E8344A" stroke="#28332E" stroke-width="1.4" stroke-linecap="round"/>
<path d="M351.7 631.0 L354.1 632.1 L356.3 633.4 L357.9 634.9 L359.2 636.4 L359.9 638.0 L360.1 639.7 L359.8 641.3 L358.9 642.9 L357.6 644.5 L355.8 645.9 L353.3 647.6 L351.1 648.8 L348.5 649.9 L345.6 650.7 L342.6 651.3 L339.3 651.7 L336.0 651.8 L332.7 651.6 L329.5 651.2 L326.4 650.5 L323.6 649.6 L91.1 562.0 L88.6 560.9 L86.5 559.6 L84.8 558.2 L83.6 556.7 L82.9 555.1 L82.6 553.4 L83.0 551.7 L83.8 550.1 L85.1 548.6 L86.9 547.2 L89.5 545.5 L91.7 544.3 L94.2 543.2 L97.1 542.4 L100.2 541.8 L103.4 541.4 L106.7 541.3 L110.0 541.5 L113.3 541.9 L116.3 542.5 L119.1 543.4Z" fill="#FFFFFF" stroke="#28332E" stroke-width="1.4" stroke-linecap="round"/>
<path d="M353.4 646.3 L351.9 647.1 L350.3 647.9 L348.4 648.5 L346.4 649.0 L344.3 649.4 L342.1 649.6 L339.9 649.7 L337.7 649.6 L335.5 649.4 L333.3 649.1 L331.3 648.6 L329.5 648.0 L327.8 647.2 L326.3 646.4 L325.0 645.5 L324.0 644.5 L323.3 643.4 L322.8 642.3 L322.7 641.2 L322.8 640.1 L323.2 639.0 L323.9 637.9 L324.9 636.9 L326.1 636.0 L327.6 635.2 L329.2 634.4 L331.1 633.8 L333.1 633.3 L335.2 632.9 L337.4 632.7 L339.6 632.6 L341.8 632.7 L344.0 632.9 L346.1 633.2 L348.2 633.7 L350.0 634.3 L351.7 635.1 L353.2 635.9 L354.5 636.8 L355.5 637.8 L356.2 638.9 L356.7 640.0 L356.8 641.1 L356.7 642.2 L356.3 643.3 L355.6 644.3 L354.6 645.3Z" fill="#1C3259"/>
<path d="M676.5 324.8 L677.9 325.4 L679.2 326.2 L680.1 327.0 L680.9 327.9 L681.3 328.8 L681.4 329.8 L681.2 330.8 L680.7 331.7 L679.9 332.6 L678.9 333.4 L678.9 333.4 L677.6 334.1 L676.1 334.8 L674.5 335.3 L672.6 335.6 L670.8 335.8 L668.8 335.9 L666.9 335.8 L665.0 335.5 L663.2 335.2 L661.6 334.6 L603.5 312.8 L602.1 312.1 L600.9 311.4 L599.9 310.5 L599.2 309.6 L598.7 308.7 L598.6 307.7 L598.8 306.8 L599.3 305.8 L600.1 304.9 L601.1 304.1 L601.1 304.1 L602.4 303.4 L603.9 302.8 L605.6 302.3 L607.4 301.9 L609.3 301.7 L611.2 301.6 L613.1 301.7 L615.0 302.0 L616.8 302.4 L618.4 302.9Z" fill="#363833"/>
<path d="M577.8 411.3 L603.7 429.6 L624.6 449.4 L652.2 467.0 L673.8 486.5 L716.8 492.9" fill="none" stroke="#28332E" stroke-width="3.2" stroke-linecap="round"/>
<path d="M577.8 411.3 L603.7 429.6 L624.6 449.4 L652.2 467.0 L673.8 486.5 L716.8 492.9" fill="none" stroke="#FFFFFF" stroke-width="1.6" stroke-linecap="round"/>
<path d="M624.6 449.4 L593.5 467.0" fill="none" stroke="#28332E" stroke-width="2.5" stroke-linecap="round"/>
<path d="M624.6 449.4 L593.5 467.0" fill="none" stroke="#FFFFFF" stroke-width="1.2" stroke-linecap="round"/>
<path d="M577.8 411.3 L601.8 433.2 L611.3 457.6 L630.0 480.7 L636.3 505.4 L641.2 530.1" fill="none" stroke="#28332E" stroke-width="3.2" stroke-linecap="round"/>
<path d="M577.8 411.3 L601.8 433.2 L611.3 457.6 L630.0 480.7 L636.3 505.4 L641.2 530.1" fill="none" stroke="#FFFFFF" stroke-width="1.6" stroke-linecap="round"/>
<path d="M577.8 411.3 L575.7 425.3 L559.2 436.7 L545.7 449.0 L546.6 463.0 L532.5 475.1" fill="none" stroke="#28332E" stroke-width="3.2" stroke-linecap="round"/>
<path d="M577.8 411.3 L575.7 425.3 L559.2 436.7 L545.7 449.0 L546.6 463.0 L532.5 475.1" fill="none" stroke="#FFFFFF" stroke-width="1.6" stroke-linecap="round"/>
<path d="M577.8 411.3 L551.8 427.0 L529.3 444.1 L489.6 448.7 L461.4 463.4 L433.0 478.0" fill="none" stroke="#28332E" stroke-width="3.2" stroke-linecap="round"/>
<path d="M577.8 411.3 L551.8 427.0 L529.3 444.1 L489.6 448.7 L461.4 463.4 L433.0 478.0" fill="none" stroke="#FFFFFF" stroke-width="1.6" stroke-linecap="round"/>
<path d="M529.3 444.1 L546.4 475.2" fill="none" stroke="#28332E" stroke-width="2.5" stroke-linecap="round"/>
<path d="M529.3 444.1 L546.4 475.2" fill="none" stroke="#FFFFFF" stroke-width="1.2" stroke-linecap="round"/>
<path d="M577.8 411.3 L527.6 405.1 L479.3 395.9 L427.6 397.2 L384.8 382.7 L336.6 373.3" fill="none" stroke="#28332E" stroke-width="3.2" stroke-linecap="round"/>
<path d="M577.8 411.3 L527.6 405.1 L479.3 395.9 L427.6 397.2 L384.8 382.7 L336.6 373.3" fill="none" stroke="#FFFFFF" stroke-width="1.6" stroke-linecap="round"/>
<path d="M577.8 411.3 L551.7 390.3 L527.8 368.6 L497.0 349.2 L465.4 330.0 L431.3 312.1" fill="none" stroke="#28332E" stroke-width="3.2" stroke-linecap="round"/>
<path d="M577.8 411.3 L551.7 390.3 L527.8 368.6 L497.0 349.2 L465.4 330.0 L431.3 312.1" fill="none" stroke="#FFFFFF" stroke-width="1.6" stroke-linecap="round"/>
<path d="M577.8 411.3 L562.3 392.7 L570.1 372.9 L566.0 352.9 L560.9 332.9 L573.4 313.7" fill="none" stroke="#28332E" stroke-width="3.2" stroke-linecap="round"/>
<path d="M577.8 411.3 L562.3 392.7 L570.1 372.9 L566.0 352.9 L560.9 332.9 L573.4 313.7" fill="none" stroke="#FFFFFF" stroke-width="1.6" stroke-linecap="round"/>
<path d="M570.1 372.9 L580.2 364.5" fill="none" stroke="#28332E" stroke-width="2.5" stroke-linecap="round"/>
<path d="M570.1 372.9 L580.2 364.5" fill="none" stroke="#FFFFFF" stroke-width="1.2" stroke-linecap="round"/>
<path d="M577.8 411.3 L595.8 391.5 L636.8 384.2 L653.6 364.1 L691.0 352.9 L730.1 343.2" fill="none" stroke="#28332E" stroke-width="3.2" stroke-linecap="round"/>
<path d="M577.8 411.3 L595.8 391.5 L636.8 384.2 L653.6 364.1 L691.0 352.9 L730.1 343.2" fill="none" stroke="#FFFFFF" stroke-width="1.6" stroke-linecap="round"/>
<path d="M577.8 411.3 L620.9 403.0 L666.3 398.7 L702.1 384.1 L738.9 370.1 L778.7 358.4" fill="none" stroke="#28332E" stroke-width="3.2" stroke-linecap="round"/>
<path d="M577.8 411.3 L620.9 403.0 L666.3 398.7 L702.1 384.1 L738.9 370.1 L778.7 358.4" fill="none" stroke="#FFFFFF" stroke-width="1.6" stroke-linecap="round"/>
<path d="M591.9 416.6 L590.4 417.5 L588.7 418.3 L586.8 418.9 L584.7 419.5 L582.5 419.8 L580.3 420.1 L578.0 420.2 L575.7 420.1 L573.4 419.9 L571.2 419.5 L569.1 419.0 L567.2 418.4 L565.5 417.6 L563.9 416.8 L562.6 415.8 L561.6 414.8 L560.8 413.7 L560.3 412.6 L560.2 411.4 L560.3 410.3 L560.7 409.1 L561.5 408.0 L562.5 407.0 L563.7 406.0 L565.2 405.2 L567.0 404.4 L568.9 403.7 L570.9 403.2 L573.1 402.8 L575.4 402.6 L577.7 402.5 L580.0 402.6 L582.2 402.8 L584.4 403.2 L586.5 403.7 L588.4 404.3 L590.2 405.0 L591.7 405.9 L593.0 406.9 L594.1 407.9 L594.8 409.0 L595.3 410.1 L595.5 411.3 L595.3 412.4 L594.9 413.5 L594.2 414.6 L593.2 415.7Z" fill="#FFFFFF" opacity="0.7"/>
<path d="M467.5 478.4 L474.2 479.1 L480.7 480.3 L486.8 482.0 L492.2 484.2 L496.8 486.7 L500.7 489.6 L503.5 492.8 L505.4 496.1 L506.2 499.5 L505.9 503.0 L505.9 503.0 L504.5 506.4 L502.1 509.6 L498.7 512.6 L494.3 515.3 L489.2 517.7 L483.5 519.6 L477.2 521.0 L470.5 522.0 L463.6 522.3 L456.7 522.2 L281.6 511.4 L274.8 510.8 L268.3 509.5 L262.3 507.8 L256.8 505.7 L252.2 503.1 L248.3 500.2 L245.5 497.1 L243.6 493.8 L242.8 490.3 L243.1 486.9 L243.1 486.9 L244.5 483.5 L246.9 480.2 L250.4 477.2 L254.7 474.5 L259.8 472.2 L265.5 470.3 L271.8 468.8 L278.5 467.9 L285.4 467.5 L292.3 467.7Z" fill="#EFC9A3" stroke="#28332E" stroke-width="2.4" stroke-linecap="round"/>
<path d="M411.4 482.1 L413.1 482.2 L414.6 482.5 L416.1 482.9 L417.4 483.5 L418.5 484.1 L419.4 484.8 L420.1 485.5 L420.5 486.3 L420.7 487.2 L420.7 488.0 L415.9 507.2 L415.6 508.1 L415.0 508.8 L414.2 509.6 L413.2 510.2 L411.9 510.8 L410.6 511.2 L409.0 511.6 L407.4 511.8 L405.8 511.9 L404.1 511.9 L337.6 507.8 L335.9 507.6 L334.4 507.3 L332.9 506.9 L331.6 506.4 L330.5 505.8 L329.6 505.1 L328.9 504.3 L328.5 503.5 L328.3 502.7 L328.4 501.9 L333.1 482.6 L333.4 481.8 L334.0 481.0 L334.8 480.3 L335.8 479.6 L337.1 479.1 L338.5 478.6 L340.0 478.3 L341.6 478.1 L343.2 478.0 L344.9 478.0Z" fill="#F7E3CC" stroke="#28332E" stroke-width="1.6" stroke-linecap="round"/>
<path d="M275.4 480.0 L275.3 480.2 L275.2 480.4 L274.9 480.7 L274.7 480.9 L274.3 481.1 L274.0 481.2 L273.5 481.4 L273.1 481.5 L272.6 481.6 L272.1 481.6 L271.6 481.7 L271.1 481.6 L270.6 481.6 L270.1 481.5 L269.7 481.4 L269.2 481.3 L268.8 481.1 L268.5 480.9 L268.2 480.7 L268.0 480.5 L267.8 480.2 L267.7 480.0 L267.7 479.7 L267.7 479.5 L267.8 479.2 L268.0 479.0 L268.2 478.8 L268.5 478.5 L268.8 478.4 L269.2 478.2 L269.6 478.0 L270.0 477.9 L270.5 477.8 L271.0 477.8 L271.5 477.8 L272.0 477.8 L272.5 477.8 L273.0 477.9 L273.5 478.0 L273.9 478.2 L274.3 478.3 L274.6 478.5 L274.9 478.7 L275.1 479.0 L275.3 479.2 L275.4 479.4 L275.4 479.7Z" fill="#C9A07A"/>
<path d="M271.1 497.5 L271.0 497.7 L270.9 498.0 L270.6 498.2 L270.4 498.4 L270.0 498.6 L269.7 498.8 L269.2 498.9 L268.8 499.0 L268.3 499.1 L267.8 499.2 L267.3 499.2 L266.8 499.2 L266.3 499.1 L265.8 499.0 L265.4 498.9 L264.9 498.8 L264.5 498.6 L264.2 498.4 L263.9 498.2 L263.7 498.0 L263.5 497.8 L263.4 497.5 L263.4 497.2 L263.4 497.0 L263.5 496.7 L263.7 496.5 L263.9 496.3 L264.2 496.1 L264.5 495.9 L264.9 495.7 L265.3 495.6 L265.7 495.4 L266.2 495.4 L266.7 495.3 L267.2 495.3 L267.7 495.3 L268.2 495.4 L268.7 495.4 L269.2 495.5 L269.6 495.7 L270.0 495.8 L270.3 496.0 L270.6 496.2 L270.8 496.5 L271.0 496.7 L271.1 497.0 L271.1 497.2Z" fill="#C9A07A"/>
<path d="M301.7 481.6 L301.6 481.8 L301.4 482.1 L301.2 482.3 L300.9 482.5 L300.6 482.7 L300.2 482.9 L299.8 483.0 L299.4 483.1 L298.9 483.2 L298.4 483.3 L297.9 483.3 L297.4 483.3 L296.9 483.2 L296.4 483.1 L295.9 483.0 L295.5 482.9 L295.1 482.7 L294.8 482.5 L294.5 482.3 L294.3 482.1 L294.1 481.8 L294.0 481.6 L294.0 481.3 L294.0 481.1 L294.1 480.8 L294.2 480.6 L294.5 480.4 L294.7 480.2 L295.1 480.0 L295.4 479.8 L295.9 479.7 L296.3 479.5 L296.8 479.5 L297.3 479.4 L297.8 479.4 L298.3 479.4 L298.8 479.5 L299.3 479.5 L299.8 479.6 L300.2 479.8 L300.6 479.9 L300.9 480.1 L301.2 480.3 L301.4 480.6 L301.6 480.8 L301.7 481.1 L301.7 481.3Z" fill="#C9A07A"/>
<path d="M297.4 499.1 L297.3 499.3 L297.1 499.6 L296.9 499.8 L296.6 500.0 L296.3 500.2 L295.9 500.4 L295.5 500.5 L295.1 500.6 L294.6 500.7 L294.1 500.8 L293.6 500.8 L293.1 500.8 L292.6 500.7 L292.1 500.6 L291.6 500.5 L291.2 500.4 L290.8 500.2 L290.5 500.0 L290.2 499.8 L290.0 499.6 L289.8 499.4 L289.7 499.1 L289.7 498.9 L289.7 498.6 L289.8 498.4 L289.9 498.1 L290.2 497.9 L290.4 497.7 L290.8 497.5 L291.1 497.3 L291.6 497.2 L292.0 497.1 L292.5 497.0 L293.0 496.9 L293.5 496.9 L294.0 496.9 L294.5 497.0 L295.0 497.0 L295.4 497.2 L295.9 497.3 L296.3 497.5 L296.6 497.6 L296.9 497.9 L297.1 498.1 L297.3 498.3 L297.4 498.6 L297.4 498.8Z" fill="#C9A07A"/>
<path d="M459.3 491.2 L459.2 491.5 L459.1 491.7 L458.9 492.0 L458.6 492.2 L458.2 492.4 L457.9 492.5 L457.4 492.7 L457.0 492.8 L456.5 492.9 L456.0 492.9 L455.5 492.9 L455.0 492.9 L454.5 492.9 L454.0 492.8 L453.6 492.7 L453.1 492.6 L452.8 492.4 L452.4 492.2 L452.1 492.0 L451.9 491.8 L451.7 491.5 L451.6 491.3 L451.6 491.0 L451.6 490.8 L451.7 490.5 L451.9 490.3 L452.1 490.1 L452.4 489.8 L452.7 489.6 L453.1 489.5 L453.5 489.3 L454.0 489.2 L454.4 489.1 L454.9 489.1 L455.4 489.1 L455.9 489.1 L456.4 489.1 L456.9 489.2 L457.4 489.3 L457.8 489.5 L458.2 489.6 L458.5 489.8 L458.8 490.0 L459.0 490.2 L459.2 490.5 L459.3 490.7 L459.4 491.0Z" fill="#C9A07A"/>
<path d="M455.0 508.8 L454.9 509.0 L454.8 509.2 L454.6 509.5 L454.3 509.7 L453.9 509.9 L453.6 510.1 L453.1 510.2 L452.7 510.3 L452.2 510.4 L451.7 510.4 L451.2 510.5 L450.7 510.4 L450.2 510.4 L449.7 510.3 L449.3 510.2 L448.8 510.1 L448.5 509.9 L448.1 509.7 L447.8 509.5 L447.6 509.3 L447.4 509.0 L447.3 508.8 L447.3 508.5 L447.3 508.3 L447.4 508.0 L447.6 507.8 L447.8 507.6 L448.1 507.4 L448.4 507.2 L448.8 507.0 L449.2 506.9 L449.7 506.7 L450.1 506.7 L450.6 506.6 L451.1 506.6 L451.6 506.6 L452.1 506.6 L452.6 506.7 L453.1 506.8 L453.5 507.0 L453.9 507.1 L454.2 507.3 L454.5 507.5 L454.7 507.8 L454.9 508.0 L455.0 508.3 L455.1 508.5Z" fill="#C9A07A"/>
<path d="M485.6 492.9 L485.5 493.1 L485.3 493.3 L485.1 493.6 L484.8 493.8 L484.5 494.0 L484.1 494.2 L483.7 494.3 L483.3 494.4 L482.8 494.5 L482.3 494.5 L481.8 494.6 L481.3 494.5 L480.8 494.5 L480.3 494.4 L479.8 494.3 L479.4 494.2 L479.0 494.0 L478.7 493.8 L478.4 493.6 L478.2 493.4 L478.0 493.1 L477.9 492.9 L477.9 492.6 L477.9 492.4 L478.0 492.1 L478.1 491.9 L478.4 491.7 L478.6 491.5 L479.0 491.3 L479.4 491.1 L479.8 490.9 L480.2 490.8 L480.7 490.8 L481.2 490.7 L481.7 490.7 L482.2 490.7 L482.7 490.7 L483.2 490.8 L483.7 490.9 L484.1 491.1 L484.5 491.2 L484.8 491.4 L485.1 491.6 L485.3 491.9 L485.5 492.1 L485.6 492.4 L485.6 492.6Z" fill="#C9A07A"/>
<path d="M481.3 510.4 L481.2 510.6 L481.0 510.9 L480.8 511.1 L480.5 511.3 L480.2 511.5 L479.8 511.7 L479.4 511.8 L479.0 511.9 L478.5 512.0 L478.0 512.1 L477.5 512.1 L477.0 512.1 L476.5 512.0 L476.0 511.9 L475.5 511.8 L475.1 511.7 L474.7 511.5 L474.4 511.3 L474.1 511.1 L473.9 510.9 L473.7 510.7 L473.6 510.4 L473.6 510.2 L473.6 509.9 L473.7 509.6 L473.8 509.4 L474.1 509.2 L474.3 509.0 L474.7 508.8 L475.1 508.6 L475.5 508.5 L475.9 508.3 L476.4 508.3 L476.9 508.2 L477.4 508.2 L477.9 508.2 L478.4 508.3 L478.9 508.3 L479.4 508.4 L479.8 508.6 L480.2 508.8 L480.5 508.9 L480.8 509.2 L481.0 509.4 L481.2 509.6 L481.3 509.9 L481.3 510.1Z" fill="#C9A07A"/>
<path d="M375.1 492.6 L375.1 492.6 L375.2 492.4 L375.4 492.1 L375.7 491.7 L376.3 491.2 L377.0 490.7 L377.9 490.2 L378.9 489.8 L380.2 489.3 L381.6 489.0 L383.2 488.8 L384.8 488.7 L386.5 488.7 L388.1 488.9 L389.8 489.2 L391.3 489.6 L392.7 490.2 L393.9 490.9 L394.8 491.6 L395.5 492.4 L395.9 493.3 L396.0 494.1 L395.8 495.0 L395.3 495.9 L394.4 496.7 L393.4 497.5 L392.0 498.3 L390.5 499.0 L388.8 499.7 L387.0 500.4 L385.2 501.0 L383.3 501.6 L381.5 502.2 L379.7 502.8 L378.1 503.4 L376.6 504.0 L375.3 504.5 L374.2 505.0 L373.3 505.5 L372.7 506.0 L372.2 506.3 L371.8 506.7 L371.6 506.9 L371.5 507.0 L371.5 507.1 L371.5 507.0 L371.5 506.9 L371.4 506.6 L371.3 506.3 L371.0 505.9 L370.5 505.3 L369.9 504.8 L369.1 504.1 L368.1 503.4 L366.9 502.7 L365.6 502.0 L364.2 501.2 L362.7 500.4 L361.2 499.5 L359.7 498.7 L358.3 497.8 L357.0 496.9 L355.9 496.0 L355.0 495.1 L354.3 494.2 L353.9 493.3 L353.8 492.4 L354.0 491.6 L354.6 490.7 L355.3 490.0 L356.4 489.3 L357.7 488.6 L359.2 488.1 L360.8 487.8 L362.5 487.5 L364.2 487.4 L365.9 487.4 L367.5 487.6 L369.1 487.9 L370.5 488.3 L371.7 488.8 L372.7 489.4 L373.5 490.0 L374.1 490.6 L374.6 491.1 L374.9 491.6 L375.0 492.1 L375.1 492.4 L375.1 492.6Z" fill="#E8344A"/>
<path d="M878.8 496.8 L870.9 497.0 L863.0 497.5 L855.3 498.5 L847.8 499.8 L840.6 501.6 L833.7 503.6 L827.3 506.0 L821.4 508.6 L816.1 511.6 L811.3 514.8 L807.2 518.2 L803.8 521.8 L801.1 525.6 L799.2 529.4 L798.0 533.4 L797.7 537.3 L797.7 550.2 L798.0 554.2 L799.2 558.1 L801.1 562.0 L803.8 565.7 L807.2 569.3 L811.3 572.7 L816.1 575.9 L821.4 578.9 L827.3 581.6 L833.7 583.9 L840.6 586.0 L847.8 587.7 L855.3 589.0 L863.0 590.0 L870.9 590.6 L878.8 590.8 L886.8 590.6 L894.7 590.0 L902.4 589.0 L909.9 587.7 L917.1 586.0 L923.9 583.9 L930.3 581.6 L936.2 578.9 L941.6 575.9 L946.3 572.7 L950.4 569.3 L953.8 565.7 L956.5 562.0 L958.4 558.1 L959.6 554.2 L960.0 550.2 L960.0 537.3 L959.6 533.4 L958.4 529.4 L956.5 525.6 L953.8 521.8 L950.4 518.2 L946.3 514.8 L941.6 511.6 L936.2 508.6 L930.3 506.0 L923.9 503.6 L917.1 501.6 L909.9 499.8 L902.4 498.5 L894.7 497.5 L886.8 497.0Z" fill="#B8263A" stroke="#28332E" stroke-width="5.0" stroke-linecap="round"/>
<path d="M936.2 566.0 L930.3 568.7 L923.9 571.1 L917.1 573.1 L909.9 574.8 L902.4 576.2 L894.7 577.2 L886.8 577.7 L878.8 577.9 L870.9 577.7 L863.0 577.2 L855.3 576.2 L847.8 574.8 L840.6 573.1 L833.7 571.1 L827.3 568.7 L821.4 566.0 L816.1 563.1 L811.3 559.9 L807.2 556.5 L803.8 552.9 L801.1 549.1 L799.2 545.3 L798.0 541.3 L797.7 537.3 L798.0 533.4 L799.2 529.4 L801.1 525.6 L803.8 521.8 L807.2 518.2 L811.3 514.8 L816.1 511.6 L821.4 508.6 L827.3 506.0 L833.7 503.6 L840.6 501.6 L847.8 499.8 L855.3 498.5 L863.0 497.5 L870.9 497.0 L878.8 496.8 L886.8 497.0 L894.7 497.5 L902.4 498.5 L909.9 499.8 L917.1 501.6 L923.9 503.6 L930.3 506.0 L936.2 508.6 L941.6 511.6 L946.3 514.8 L950.4 518.2 L953.8 521.8 L956.5 525.6 L958.4 529.4 L959.6 533.4 L960.0 537.3 L959.6 541.3 L958.4 545.3 L956.5 549.1 L953.8 552.9 L950.4 556.5 L946.3 559.9 L941.6 563.1Z" fill="#E8344A" stroke="#28332E" stroke-width="5.0" stroke-linecap="round"/>
<path d="M878.8 489.8 L876.1 489.9 L873.3 490.1 L870.6 490.5 L868.0 490.9 L865.5 491.5 L863.1 492.2 L860.9 493.0 L858.9 494.0 L857.0 495.0 L855.3 496.1 L853.9 497.3 L852.7 498.6 L851.8 499.9 L851.1 501.2 L850.7 502.6 L850.6 504.0 L850.6 537.3 L850.7 538.7 L851.1 540.1 L851.8 541.4 L852.7 542.7 L853.9 544.0 L855.3 545.2 L857.0 546.3 L858.9 547.3 L860.9 548.3 L863.1 549.1 L865.5 549.8 L868.0 550.4 L870.6 550.9 L873.3 551.2 L876.1 551.4 L878.8 551.5 L881.6 551.4 L884.3 551.2 L887.0 550.9 L889.6 550.4 L892.1 549.8 L894.5 549.1 L896.7 548.3 L898.8 547.3 L900.7 546.3 L902.3 545.2 L903.7 544.0 L904.9 542.7 L905.8 541.4 L906.5 540.1 L906.9 538.7 L907.1 537.3 L907.1 504.0 L906.9 502.6 L906.5 501.2 L905.8 499.9 L904.9 498.6 L903.7 497.3 L902.3 496.1 L900.7 495.0 L898.8 494.0 L896.7 493.0 L894.5 492.2 L892.1 491.5 L889.6 490.9 L887.0 490.5 L884.3 490.1 L881.6 489.9Z" fill="#B8263A" stroke="#28332E" stroke-width="3.0" stroke-linecap="round"/>
<path d="M898.8 513.9 L896.7 514.9 L894.5 515.7 L892.1 516.4 L889.6 517.0 L887.0 517.5 L884.3 517.8 L881.6 518.0 L878.8 518.1 L876.1 518.0 L873.3 517.8 L870.6 517.5 L868.0 517.0 L865.5 516.4 L863.1 515.7 L860.9 514.9 L858.9 513.9 L857.0 512.9 L855.3 511.8 L853.9 510.6 L852.7 509.4 L851.8 508.1 L851.1 506.7 L850.7 505.3 L850.6 504.0 L850.7 502.6 L851.1 501.2 L851.8 499.9 L852.7 498.6 L853.9 497.3 L855.3 496.1 L857.0 495.0 L858.9 494.0 L860.9 493.0 L863.1 492.2 L865.5 491.5 L868.0 490.9 L870.6 490.5 L873.3 490.1 L876.1 489.9 L878.8 489.8 L881.6 489.9 L884.3 490.1 L887.0 490.5 L889.6 490.9 L892.1 491.5 L894.5 492.2 L896.7 493.0 L898.8 494.0 L900.7 495.0 L902.3 496.1 L903.7 497.3 L904.9 498.6 L905.8 499.9 L906.5 501.2 L906.9 502.6 L907.1 504.0 L906.9 505.3 L906.5 506.7 L905.8 508.1 L904.9 509.4 L903.7 510.6 L902.3 511.8 L900.7 512.9Z" fill="#E8344A" stroke="#28332E" stroke-width="3.0" stroke-linecap="round"/>
<path d="M906.3 474.0 L909.8 476.1 L913.2 478.6 L916.5 481.6 L919.5 485.0 L922.2 488.7 L924.4 492.6 L926.3 496.7 L927.6 500.7 L928.5 504.6 L928.7 508.4 L928.7 513.5 L928.5 517.0 L927.6 520.1 L926.3 522.8 L924.4 524.9 L922.2 526.6 L919.5 527.6 L916.5 528.0 L913.2 527.7 L909.8 526.9 L906.3 525.4 L851.4 497.9 L847.9 495.9 L844.4 493.3 L841.2 490.3 L838.2 486.9 L835.5 483.2 L833.2 479.3 L831.4 475.3 L830.0 471.3 L829.2 467.3 L828.9 463.6 L828.9 458.5 L829.2 455.0 L830.0 451.9 L831.4 449.2 L833.2 447.0 L835.5 445.4 L838.2 444.4 L841.2 444.0 L844.4 444.2 L847.9 445.1 L851.4 446.6ZM901.3 484.4 L903.2 485.5 L905.1 486.9 L907.0 488.6 L908.6 490.5 L910.1 492.5 L911.4 494.7 L912.4 496.9 L913.2 499.2 L913.6 501.4 L913.8 503.5 L913.8 503.5 L913.6 505.4 L913.2 507.1 L912.4 508.6 L911.4 509.8 L910.1 510.7 L908.6 511.3 L907.0 511.5 L905.1 511.4 L903.2 510.9 L901.3 510.1 L856.4 487.6 L854.4 486.5 L852.5 485.0 L850.7 483.4 L849.0 481.5 L847.5 479.4 L846.3 477.3 L845.2 475.0 L844.5 472.8 L844.0 470.6 L843.9 468.5 L843.9 468.5 L844.0 466.6 L844.5 464.9 L845.2 463.4 L846.3 462.2 L847.5 461.3 L849.0 460.7 L850.7 460.5 L852.5 460.6 L854.4 461.1 L856.4 461.9Z" fill="#E8344A" fill-rule="evenodd" stroke="#28332E" stroke-width="5.0" stroke-linecap="round"/>
<path d="M517.0 631.3 L828.9 687.4 L823.9 692.4 L512.0 638.8Z" fill="#DCDDDB" stroke="#28332E" stroke-width="2.4" stroke-linecap="round"/>
<path d="M517.0 631.3 L791.5 718.6 L782.7 723.0 L510.7 636.9Z" fill="#C6C9C6" stroke="#28332E" stroke-width="2.4" stroke-linecap="round"/>
<path d="M442.1 692.3 L440.9 692.3 L439.7 692.4 L438.5 692.5 L437.4 692.8 L436.3 693.0 L435.2 693.3 L434.3 693.7 L433.4 694.1 L432.5 694.5 L431.8 695.0 L431.2 695.5 L430.7 696.1 L430.3 696.7 L430.0 697.3 L429.8 697.9 L429.7 698.5 L429.7 706.2 L429.8 706.8 L430.0 707.4 L430.3 708.0 L430.7 708.5 L431.2 709.1 L431.8 709.6 L432.5 710.1 L433.4 710.5 L434.3 710.9 L435.2 711.3 L436.3 711.6 L437.4 711.9 L438.5 712.1 L439.7 712.2 L440.9 712.3 L442.1 712.3 L443.3 712.3 L444.5 712.2 L445.7 712.1 L446.8 711.9 L447.9 711.6 L449.0 711.3 L449.9 710.9 L450.8 710.5 L451.6 710.1 L452.4 709.6 L453.0 709.1 L453.5 708.5 L453.9 708.0 L454.2 707.4 L454.4 706.8 L454.4 706.2 L454.4 698.5 L454.4 697.9 L454.2 697.3 L453.9 696.7 L453.5 696.1 L453.0 695.5 L452.4 695.0 L451.6 694.5 L450.8 694.1 L449.9 693.7 L449.0 693.3 L447.9 693.0 L446.8 692.8 L445.7 692.5 L444.5 692.4 L443.3 692.3Z" fill="#AEB2AF" stroke="#28332E" stroke-width="1.6" stroke-linecap="round"/>
<path d="M450.8 702.8 L449.9 703.2 L449.0 703.6 L447.9 703.9 L446.8 704.2 L445.7 704.4 L444.5 704.5 L443.3 704.6 L442.1 704.6 L440.9 704.6 L439.7 704.5 L438.5 704.4 L437.4 704.2 L436.3 703.9 L435.2 703.6 L434.3 703.2 L433.4 702.8 L432.5 702.4 L431.8 701.9 L431.2 701.4 L430.7 700.8 L430.3 700.3 L430.0 699.7 L429.8 699.1 L429.7 698.5 L429.8 697.9 L430.0 697.3 L430.3 696.7 L430.7 696.1 L431.2 695.5 L431.8 695.0 L432.5 694.5 L433.4 694.1 L434.3 693.7 L435.2 693.3 L436.3 693.0 L437.4 692.8 L438.5 692.5 L439.7 692.4 L440.9 692.3 L442.1 692.3 L443.3 692.3 L444.5 692.4 L445.7 692.5 L446.8 692.8 L447.9 693.0 L449.0 693.3 L449.9 693.7 L450.8 694.1 L451.6 694.5 L452.4 695.0 L453.0 695.5 L453.5 696.1 L453.9 696.7 L454.2 697.3 L454.4 697.9 L454.4 698.5 L454.4 699.1 L454.2 699.7 L453.9 700.3 L453.5 700.8 L453.0 701.4 L452.4 701.9 L451.6 702.4Z" fill="#DCDDDB" stroke="#28332E" stroke-width="1.6" stroke-linecap="round"/>
<path d="M437.1 696.0 L447.1 701.0" fill="none" stroke="#4B524D" stroke-width="1.5" stroke-linecap="round"/>
<path d="M454.6 723.5 L453.4 723.5 L452.2 723.6 L451.0 723.7 L449.8 723.9 L448.7 724.2 L447.7 724.5 L446.7 724.9 L445.8 725.3 L445.0 725.7 L444.3 726.2 L443.7 726.7 L443.2 727.3 L442.8 727.9 L442.5 728.4 L442.3 729.0 L442.2 729.7 L442.2 737.4 L442.3 738.0 L442.5 738.6 L442.8 739.2 L443.2 739.7 L443.7 740.3 L444.3 740.8 L445.0 741.3 L445.8 741.7 L446.7 742.1 L447.7 742.5 L448.7 742.8 L449.8 743.1 L451.0 743.3 L452.2 743.4 L453.4 743.5 L454.6 743.5 L455.8 743.5 L457.0 743.4 L458.2 743.3 L459.3 743.1 L460.4 742.8 L461.4 742.5 L462.4 742.1 L463.3 741.7 L464.1 741.3 L464.8 740.8 L465.5 740.3 L466.0 739.7 L466.4 739.2 L466.7 738.6 L466.9 738.0 L466.9 737.4 L466.9 729.7 L466.9 729.0 L466.7 728.4 L466.4 727.9 L466.0 727.3 L465.5 726.7 L464.8 726.2 L464.1 725.7 L463.3 725.3 L462.4 724.9 L461.4 724.5 L460.4 724.2 L459.3 723.9 L458.2 723.7 L457.0 723.6 L455.8 723.5Z" fill="#AEB2AF" stroke="#28332E" stroke-width="1.6" stroke-linecap="round"/>
<path d="M463.3 734.0 L462.4 734.4 L461.4 734.8 L460.4 735.1 L459.3 735.4 L458.2 735.6 L457.0 735.7 L455.8 735.8 L454.6 735.8 L453.4 735.8 L452.2 735.7 L451.0 735.6 L449.8 735.4 L448.7 735.1 L447.7 734.8 L446.7 734.4 L445.8 734.0 L445.0 733.6 L444.3 733.1 L443.7 732.6 L443.2 732.0 L442.8 731.4 L442.5 730.9 L442.3 730.3 L442.2 729.7 L442.3 729.0 L442.5 728.4 L442.8 727.9 L443.2 727.3 L443.7 726.7 L444.3 726.2 L445.0 725.7 L445.8 725.3 L446.7 724.9 L447.7 724.5 L448.7 724.2 L449.8 723.9 L451.0 723.7 L452.2 723.6 L453.4 723.5 L454.6 723.5 L455.8 723.5 L457.0 723.6 L458.2 723.7 L459.3 723.9 L460.4 724.2 L461.4 724.5 L462.4 724.9 L463.3 725.3 L464.1 725.7 L464.8 726.2 L465.5 726.7 L466.0 727.3 L466.4 727.9 L466.7 728.4 L466.9 729.0 L466.9 729.7 L466.9 730.3 L466.7 730.9 L466.4 731.4 L466.0 732.0 L465.5 732.6 L464.8 733.1 L464.1 733.6Z" fill="#DCDDDB" stroke="#28332E" stroke-width="1.6" stroke-linecap="round"/>
<path d="M449.6 727.2 L459.6 732.1" fill="none" stroke="#4B524D" stroke-width="1.5" stroke-linecap="round"/>
<path d="M533.2 727.8 L532.0 727.9 L530.8 728.0 L529.6 728.1 L528.5 728.3 L527.4 728.6 L526.3 728.9 L525.3 729.2 L524.4 729.7 L523.6 730.1 L522.9 730.6 L522.3 731.1 L521.8 731.7 L521.4 732.2 L521.1 732.8 L520.9 733.4 L520.8 734.0 L520.8 741.7 L520.9 742.3 L521.1 742.9 L521.4 743.5 L521.8 744.1 L522.3 744.6 L522.9 745.2 L523.6 745.6 L524.4 746.1 L525.3 746.5 L526.3 746.9 L527.4 747.2 L528.5 747.4 L529.6 747.6 L530.8 747.8 L532.0 747.9 L533.2 747.9 L534.4 747.9 L535.6 747.8 L536.8 747.6 L537.9 747.4 L539.0 747.2 L540.0 746.9 L541.0 746.5 L541.9 746.1 L542.7 745.6 L543.5 745.2 L544.1 744.6 L544.6 744.1 L545.0 743.5 L545.3 742.9 L545.5 742.3 L545.5 741.7 L545.5 734.0 L545.5 733.4 L545.3 732.8 L545.0 732.2 L544.6 731.7 L544.1 731.1 L543.5 730.6 L542.7 730.1 L541.9 729.7 L541.0 729.2 L540.0 728.9 L539.0 728.6 L537.9 728.3 L536.8 728.1 L535.6 728.0 L534.4 727.9Z" fill="#AEB2AF" stroke="#28332E" stroke-width="1.6" stroke-linecap="round"/>
<path d="M541.9 738.4 L541.0 738.8 L540.0 739.2 L539.0 739.5 L537.9 739.7 L536.8 739.9 L535.6 740.1 L534.4 740.2 L533.2 740.2 L532.0 740.2 L530.8 740.1 L529.6 739.9 L528.5 739.7 L527.4 739.5 L526.3 739.2 L525.3 738.8 L524.4 738.4 L523.6 737.9 L522.9 737.5 L522.3 736.9 L521.8 736.4 L521.4 735.8 L521.1 735.2 L520.9 734.6 L520.8 734.0 L520.9 733.4 L521.1 732.8 L521.4 732.2 L521.8 731.7 L522.3 731.1 L522.9 730.6 L523.6 730.1 L524.4 729.7 L525.3 729.2 L526.3 728.9 L527.4 728.6 L528.5 728.3 L529.6 728.1 L530.8 728.0 L532.0 727.9 L533.2 727.8 L534.4 727.9 L535.6 728.0 L536.8 728.1 L537.9 728.3 L539.0 728.6 L540.0 728.9 L541.0 729.2 L541.9 729.7 L542.7 730.1 L543.5 730.6 L544.1 731.1 L544.6 731.7 L545.0 732.2 L545.3 732.8 L545.5 733.4 L545.5 734.0 L545.5 734.6 L545.3 735.2 L545.0 735.8 L544.6 736.4 L544.1 736.9 L543.5 737.5 L542.7 737.9Z" fill="#DCDDDB" stroke="#28332E" stroke-width="1.6" stroke-linecap="round"/>
<path d="M528.2 731.5 L538.2 736.5" fill="none" stroke="#4B524D" stroke-width="1.5" stroke-linecap="round"/>
</g></svg>