<svg xmlns="http://www.w3.org/2000/svg" viewBox="3.6 -25.79 400 400" width="400" height="400">
<title>USB flash drive</title>
<g stroke-linejoin="round" stroke-linecap="round">
<path d="M328.6 71.75L351.99 85.25L356.17 88.09L359.43 91.2L361.75 94.5L363.15 97.94L363.61 101.45L363.15 104.96L361.75 108.4L359.43 111.7L356.17 114.81L351.99 117.65L188.31 212.15L187.08 212.75L185.73 213.22L184.3 213.56L182.81 213.76L181.29 213.83L179.78 213.76L178.29 213.56L176.85 213.22L175.51 212.75L174.28 212.15L108.81 174.35L107.76 173.64L106.95 172.86L106.37 172.04L106.02 171.18L105.9 170.3L106.02 169.42L106.37 168.56L106.95 167.74L107.76 166.96L108.81 166.25L272.49 71.75L277.4 69.33L282.79 67.46L288.51 66.11L294.47 65.31L300.55 65.04L306.62 65.31L312.58 66.11L318.31 67.46L323.69 69.33Z" fill="#22302c" stroke="#22302c" stroke-width="6"/>
<path d="M328.6 112.25L351.99 125.75L356.17 128.59L359.43 131.7L361.75 135L363.15 138.44L363.61 141.95L363.15 145.46L361.75 148.9L359.43 152.2L356.17 155.31L351.99 158.15L188.31 252.65L187.08 253.25L185.73 253.72L184.3 254.06L182.81 254.26L181.29 254.33L179.78 254.26L178.29 254.06L176.85 253.72L175.51 253.25L174.28 252.65L108.81 214.85L107.76 214.14L106.95 213.36L106.37 212.54L106.02 211.68L105.9 210.8L106.02 209.92L106.37 209.06L106.95 208.24L107.76 207.46L108.81 206.75L272.49 112.25L277.4 109.83L282.79 107.96L288.51 106.61L294.47 105.81L300.55 105.54L306.62 105.81L312.58 106.61L318.31 107.96L323.69 109.83Z" fill="#22302c" stroke="#22302c" stroke-width="6"/>
<path d="M363.61 141.95L363.15 145.46L361.75 148.9L359.43 152.2L356.17 155.31L351.99 158.15L188.31 252.65L187.08 253.25L185.73 253.72L184.3 254.06L182.81 254.26L181.29 254.33L181.29 213.83L182.81 213.76L184.3 213.56L185.73 213.22L187.08 212.75L188.31 212.15L351.99 117.65L356.17 114.81L359.43 111.7L361.75 108.4L363.15 104.96L363.61 101.45Z" fill="#22302c" stroke="#22302c" stroke-width="6"/>
<path d="M181.29 254.33L179.78 254.26L178.29 254.06L176.85 253.72L175.51 253.25L174.28 252.65L108.81 214.85L107.76 214.14L106.95 213.36L106.37 212.54L106.02 211.68L105.9 210.8L105.9 170.3L106.02 171.18L106.37 172.04L106.95 172.86L107.76 173.64L108.81 174.35L174.28 212.15L175.51 212.75L176.85 213.22L178.29 213.56L179.78 213.76L181.29 213.83Z" fill="#22302c" stroke="#22302c" stroke-width="6"/>
<path d="M363.61 141.95L363.15 145.46L361.75 148.9L359.43 152.2L356.17 155.31L351.99 158.15L188.31 252.65L187.08 253.25L185.73 253.72L184.3 254.06L182.81 254.26L181.29 254.33L181.29 213.83L182.81 213.76L184.3 213.56L185.73 213.22L187.08 212.75L188.31 212.15L351.99 117.65L356.17 114.81L359.43 111.7L361.75 108.4L363.15 104.96L363.61 101.45Z" fill="#13233f" stroke="#13233f" stroke-width="0.7"/>
<path d="M181.29 254.33L179.78 254.26L178.29 254.06L176.85 253.72L175.51 253.25L174.28 252.65L108.81 214.85L107.76 214.14L106.95 213.36L106.37 212.54L106.02 211.68L105.9 210.8L105.9 170.3L106.02 171.18L106.37 172.04L106.95 172.86L107.76 173.64L108.81 174.35L174.28 212.15L175.51 212.75L176.85 213.22L178.29 213.56L179.78 213.76L181.29 213.83Z" fill="#1c3259" stroke="#1c3259" stroke-width="0.7"/>
<path d="M328.6 71.75L351.99 85.25C367.48 94.2 367.48 108.7 351.99 117.65L188.31 212.15C184.43 214.39 178.15 214.39 174.28 212.15L108.81 174.35C104.93 172.11 104.93 168.49 108.81 166.25L272.49 71.75C287.98 62.8 313.11 62.8 328.6 71.75Z" fill="#2e4c80" stroke="#22302c" stroke-width="3"/>
<path d="M328.6 98.75C322.15 102.48 311.68 102.48 305.22 98.75C298.77 95.02 298.77 88.98 305.22 85.25C311.68 81.52 322.15 81.52 328.6 85.25C335.06 88.98 335.06 95.02 328.6 98.75Z" fill="#fff8ea" stroke="#22302c" stroke-width="2"/>
<path d="M328.6 98.75C322.15 102.48 311.68 102.48 305.22 98.75C298.77 95.02 298.77 88.98 305.22 85.25C311.68 81.52 322.15 81.52 328.6 85.25C335.06 88.98 335.06 95.02 328.6 98.75Z" fill="none"/>
<path d="M278.33 98.07L299.38 110.22L301.29 111.53L302.79 112.95L303.85 114.47L304.49 116.04L304.7 117.65L304.49 119.26L303.85 120.83L302.79 122.35L301.29 123.77L299.38 125.07L297.12 126.18L294.66 127.04L292.03 127.66L289.3 128.03L286.52 128.15L283.73 128.03L281 127.66L278.38 127.04L275.91 126.18L273.66 125.07L252.61 112.92L250.69 111.62L249.2 110.2L248.14 108.68L247.5 107.11L247.28 105.5L247.5 103.89L248.14 102.32L249.2 100.8L250.69 99.38L252.61 98.07L254.87 96.97L257.33 96.11L259.96 95.49L262.69 95.12L265.47 95L268.26 95.12L270.99 95.49L273.61 96.11L276.08 96.97Z" fill="#22302c" stroke="#22302c" stroke-width="4"/>
<path d="M278.33 102.12L299.38 114.27L301.29 115.58L302.79 117L303.85 118.52L304.49 120.09L304.7 121.7L304.49 123.31L303.85 124.88L302.79 126.4L301.29 127.82L299.38 129.12L297.12 130.23L294.66 131.09L292.03 131.71L289.3 132.08L286.52 132.2L283.73 132.08L281 131.71L278.38 131.09L275.91 130.23L273.66 129.12L252.61 116.97L250.69 115.67L249.2 114.25L248.14 112.73L247.5 111.16L247.28 109.55L247.5 107.94L248.14 106.37L249.2 104.85L250.69 103.43L252.61 102.12L254.87 101.02L257.33 100.16L259.96 99.54L262.69 99.17L265.47 99.05L268.26 99.17L270.99 99.54L273.61 100.16L276.08 101.02Z" fill="#22302c" stroke="#22302c" stroke-width="4"/>
<path d="M286.52 132.2L283.73 132.08L281 131.71L278.38 131.09L275.91 130.23L273.66 129.12L252.61 116.97L250.69 115.67L249.2 114.25L248.14 112.73L247.5 111.16L247.28 109.55L247.28 105.5L247.5 107.11L248.14 108.68L249.2 110.2L250.69 111.62L252.61 112.92L273.66 125.07L275.91 126.18L278.38 127.04L281 127.66L283.73 128.03L286.52 128.15Z" fill="#22302c" stroke="#22302c" stroke-width="4"/>
<path d="M304.7 121.7L304.49 123.31L303.85 124.88L302.79 126.4L301.29 127.82L299.38 129.12L297.12 130.23L294.66 131.09L292.03 131.71L289.3 132.08L286.52 132.2L286.52 128.15L289.3 128.03L292.03 127.66L294.66 127.04L297.12 126.18L299.38 125.07L301.29 123.77L302.79 122.35L303.85 120.83L304.49 119.26L304.7 117.65Z" fill="#22302c" stroke="#22302c" stroke-width="4"/>
<path d="M286.52 132.2L283.73 132.08L281 131.71L278.38 131.09L275.91 130.23L273.66 129.12L252.61 116.97L250.69 115.67L249.2 114.25L248.14 112.73L247.5 111.16L247.28 109.55L247.28 105.5L247.5 107.11L248.14 108.68L249.2 110.2L250.69 111.62L252.61 112.92L273.66 125.07L275.91 126.18L278.38 127.04L281 127.66L283.73 128.03L286.52 128.15Z" fill="#e8344a" stroke="#e8344a" stroke-width="0.7"/>
<path d="M304.7 121.7L304.49 123.31L303.85 124.88L302.79 126.4L301.29 127.82L299.38 129.12L297.12 130.23L294.66 131.09L292.03 131.71L289.3 132.08L286.52 132.2L286.52 128.15L289.3 128.03L292.03 127.66L294.66 127.04L297.12 126.18L299.38 125.07L301.29 123.77L302.79 122.35L303.85 120.83L304.49 119.26L304.7 117.65Z" fill="#b8263a" stroke="#b8263a" stroke-width="0.7"/>
<path d="M278.33 98.07L299.38 110.22C306.48 114.33 306.48 120.97 299.38 125.07L299.38 125.07C292.27 129.18 280.76 129.18 273.66 125.07L252.61 112.92C245.51 108.82 245.51 102.18 252.61 98.07L252.61 98.07C259.71 93.97 271.23 93.97 278.33 98.07Z" fill="#e8344a" stroke="#22302c" stroke-width="2"/>
<path d="M273.66 102.12L259.63 110.22" fill="none" stroke="#932532" stroke-width="1.2"/>
<path d="M279.85 105.7L265.82 113.8" fill="none" stroke="#932532" stroke-width="1.2"/>
<path d="M286.05 109.28L272.02 117.38" fill="none" stroke="#932532" stroke-width="1.2"/>
<path d="M292.24 112.86L278.22 120.96" fill="none" stroke="#932532" stroke-width="1.2"/>
<path d="M225.72 120.35L267.81 144.65C272.98 147.63 272.98 152.47 267.81 155.45L202.34 193.25C197.17 196.23 188.8 196.23 183.63 193.25L141.54 168.95C136.38 165.97 136.38 161.13 141.54 158.15L207.01 120.35C212.18 117.37 220.56 117.37 225.72 120.35Z" fill="#fff8ea" stroke="#22302c" stroke-width="2"/>
<path d="M220.46 147.69C223.57 143.33 219.13 138.2 211.13 136.66C201.8 134.86 191.58 138.71 188.03 144.35C184.03 150.77 187.14 158.72 185.81 165.13L220.46 147.69Z" fill="#e8344a"/>
<path d="M220.46 147.69C231.57 144.35 243.56 146.66 248 151.28C252 156.15 244.89 161.28 234.68 163.59C220.46 166.67 200.47 165.39 185.81 165.13L220.46 147.69Z" fill="#1c3259"/>
<path d="M206.48 149.86C203.93 152.13 199.57 153.11 196.74 152.05C193.91 150.99 193.68 148.29 196.23 146.02C198.79 143.76 203.15 142.78 205.98 143.84C208.8 144.9 209.03 147.6 206.48 149.86ZM202.42 148.34C203.67 147.23 204.21 146.15 203.62 145.93C203.03 145.71 201.54 146.43 200.29 147.54C199.04 148.66 198.5 149.74 199.09 149.96C199.68 150.18 201.17 149.46 202.42 148.34Z" fill="#fff8ea"/>
<path d="M227.2 150.91L233.29 150.32L236.16 151.4L227.89 158.75L230.12 159.58L228.46 161.05L218.59 157.35L220.25 155.88L223.75 157.2L228.92 152.6L226.75 152.68Z" fill="#fff8ea"/>
<path d="M220.46 147.69C231.57 144.35 243.56 146.66 248 151.28C252 156.15 244.89 161.28 234.68 163.59C220.46 166.67 200.47 165.39 185.81 165.13C187.14 158.72 184.03 150.77 188.03 144.35C191.58 138.71 201.8 134.86 211.13 136.66C219.13 138.2 223.57 143.33 220.46 147.69Z" fill="none" stroke="#22302c" stroke-width="2"/>
<path d="M164.93 160.85L197.66 179.75C198.95 180.5 198.95 181.7 197.66 182.45L197.66 182.45C196.37 183.2 194.28 183.2 192.99 182.45L160.25 163.55C158.96 162.8 158.96 161.6 160.25 160.85L160.25 160.85C161.54 160.1 163.63 160.1 164.93 160.85Z" fill="#d9cca8"/>
<path d="M162.24 168.75L183.98 181.3C185.08 181.94 185.08 182.96 183.98 183.6L183.98 183.6C182.89 184.23 181.11 184.23 180.01 183.6L158.26 171.04C157.16 170.41 157.16 169.38 158.26 168.75L158.26 168.75C159.36 168.11 161.14 168.11 162.24 168.75Z" fill="#d9cca8"/>
<path d="M184.33 199.06C182.65 200.02 179.93 200.02 178.25 199.06C176.58 198.09 176.58 196.51 178.25 195.54C179.93 194.58 182.65 194.58 184.33 195.54C186.01 196.51 186.01 198.09 184.33 199.06Z" fill="#7ed36f" stroke="#22302c" stroke-width="1"/>
<path d="M115.82 185.15L167.26 214.85L167.61 215.09L167.88 215.35L168.08 215.62L168.19 215.91L168.23 216.2L168.19 216.49L168.08 216.78L167.88 217.05L167.61 217.31L167.26 217.55L97.12 258.05L96.71 258.25L96.26 258.41L95.78 258.52L95.28 258.59L94.78 258.61L94.27 258.59L93.78 258.52L93.3 258.41L92.85 258.25L92.44 258.05L41 228.35L40.65 228.11L40.38 227.85L40.18 227.58L40.07 227.29L40.03 227L40.07 226.71L40.18 226.42L40.38 226.15L40.65 225.89L41 225.65L111.15 185.15L111.56 184.95L112 184.79L112.48 184.68L112.98 184.61L113.48 184.59L113.99 184.61L114.49 184.68L114.96 184.79L115.41 184.95Z" fill="#22302c" stroke="#22302c" stroke-width="6"/>
<path d="M115.82 212.15L167.26 241.85L167.61 242.09L167.88 242.35L168.08 242.62L168.19 242.91L168.23 243.2L168.19 243.49L168.08 243.78L167.88 244.05L167.61 244.31L167.26 244.55L97.12 285.05L96.71 285.25L96.26 285.41L95.78 285.52L95.28 285.59L94.78 285.61L94.27 285.59L93.78 285.52L93.3 285.41L92.85 285.25L92.44 285.05L41 255.35L40.65 255.11L40.38 254.85L40.18 254.58L40.07 254.29L40.03 254L40.07 253.71L40.18 253.42L40.38 253.15L40.65 252.89L41 252.65L111.15 212.15L111.56 211.95L112 211.79L112.48 211.68L112.98 211.61L113.48 211.59L113.99 211.61L114.49 211.68L114.96 211.79L115.41 211.95Z" fill="#22302c" stroke="#22302c" stroke-width="6"/>
<path d="M168.23 243.2L168.19 243.49L168.08 243.78L167.88 244.05L167.61 244.31L167.26 244.55L97.12 285.05L96.71 285.25L96.26 285.41L95.78 285.52L95.28 285.59L94.78 285.61L94.78 258.61L95.28 258.59L95.78 258.52L96.26 258.41L96.71 258.25L97.12 258.05L167.26 217.55L167.61 217.31L167.88 217.05L168.08 216.78L168.19 216.49L168.23 216.2Z" fill="#22302c" stroke="#22302c" stroke-width="6"/>
<path d="M94.78 285.61L94.27 285.59L93.78 285.52L93.3 285.41L92.85 285.25L92.44 285.05L41 255.35L40.65 255.11L40.38 254.85L40.18 254.58L40.07 254.29L40.03 254L40.03 227L40.07 227.29L40.18 227.58L40.38 227.85L40.65 228.11L41 228.35L92.44 258.05L92.85 258.25L93.3 258.41L93.78 258.52L94.27 258.59L94.78 258.61Z" fill="#22302c" stroke="#22302c" stroke-width="6"/>
<path d="M168.23 243.2L168.19 243.49L168.08 243.78L167.88 244.05L167.61 244.31L167.26 244.55L97.12 285.05L96.71 285.25L96.26 285.41L95.78 285.52L95.28 285.59L94.78 285.61L94.78 258.61L95.28 258.59L95.78 258.52L96.26 258.41L96.71 258.25L97.12 258.05L167.26 217.55L167.61 217.31L167.88 217.05L168.08 216.78L168.19 216.49L168.23 216.2Z" fill="#9ea39f" stroke="#9ea39f" stroke-width="0.7"/>
<path d="M94.78 285.61L94.27 285.59L93.78 285.52L93.3 285.41L92.85 285.25L92.44 285.05L41 255.35L40.65 255.11L40.38 254.85L40.18 254.58L40.07 254.29L40.03 254L40.03 227L40.07 227.29L40.18 227.58L40.38 227.85L40.65 228.11L41 228.35L92.44 258.05L92.85 258.25L93.3 258.41L93.78 258.52L94.27 258.59L94.78 258.61Z" fill="#c6c9c6" stroke="#c6c9c6" stroke-width="0.7"/>
<path d="M115.82 185.15L167.26 214.85C168.56 215.6 168.56 216.8 167.26 217.55L97.12 258.05C95.82 258.8 93.73 258.8 92.44 258.05L41 228.35C39.71 227.6 39.71 226.4 41 225.65L111.15 185.15C112.44 184.4 114.53 184.4 115.82 185.15Z" fill="#e4e6e3" stroke="#22302c" stroke-width="3"/>
<path d="M83.09 212.15L92.44 217.55C93.09 217.92 93.09 218.53 92.44 218.9L83.09 224.3C82.44 224.67 81.39 224.67 80.75 224.3L71.4 218.9C70.75 218.53 70.75 217.92 71.4 217.55L80.75 212.15C81.39 211.78 82.44 211.78 83.09 212.15Z" fill="#363833" stroke="#22302c" stroke-width="1.6"/>
<path d="M111.15 228.35L120.5 233.75C121.14 234.12 121.14 234.73 120.5 235.1L111.15 240.5C110.5 240.87 109.45 240.87 108.81 240.5L99.45 235.1C98.81 234.73 98.81 234.12 99.45 233.75L108.81 228.35C109.45 227.98 110.5 227.98 111.15 228.35Z" fill="#363833" stroke="#22302c" stroke-width="1.6"/>
<path d="M45.67 236.45L87.76 260.75C88.41 261.12 88.93 262.03 88.93 262.77L88.93 273.57C88.93 274.32 88.41 274.62 87.76 274.25L45.67 249.95C45.03 249.58 44.51 248.67 44.51 247.93L44.51 237.12C44.51 236.38 45.03 236.08 45.67 236.45Z" fill="#1f2a2e" stroke="#22302c" stroke-width="1.4"/>
<path d="M49.18 241.18L84.26 261.43L84.26 266.82L49.18 246.57L49.18 241.18Z" fill="#f0ece4"/>
</g></svg>