<svg xmlns="http://www.w3.org/2000/svg" viewBox="0 -65.25 400 400" width="400" height="400">
<title>Power bank</title>
<g stroke-linejoin="round" stroke-linecap="round">
<path d="M98.16 31.44L259.17 124.4L262.63 126.72L265.91 129.55L268.97 132.81L271.77 136.43L274.26 140.33L276.39 144.43L278.12 148.66L279.42 152.94L280.23 157.2L280.51 161.36L280.51 246.48L280.23 250.32L279.42 253.64L278.12 256.43L276.39 258.66L274.26 260.29L271.77 261.32L268.97 261.71L265.91 261.44L262.63 260.48L259.17 258.8L98.16 165.84L94.69 163.52L91.41 160.69L88.35 157.43L85.55 153.81L83.07 149.91L80.93 145.81L79.2 141.58L77.9 137.3L77.1 133.04L76.82 128.88L76.82 43.76L77.1 39.92L77.9 36.6L79.2 33.81L80.93 31.58L83.07 29.95L85.55 28.92L88.35 28.53L91.41 28.8L94.69 29.76Z" fill="#22302c" stroke="#22302c" stroke-width="6"/>
<path d="M140.83 6.8L301.84 99.76L305.31 102.08L308.59 104.91L311.65 108.17L314.45 111.79L316.93 115.69L319.07 119.79L320.8 124.02L322.1 128.3L322.9 132.56L323.18 136.72L323.18 221.84L322.9 225.68L322.1 229L320.8 231.79L319.07 234.02L316.93 235.65L314.45 236.68L311.65 237.07L308.59 236.8L305.31 235.84L301.84 234.16L140.83 141.2L137.37 138.88L134.09 136.05L131.03 132.79L128.23 129.17L125.74 125.27L123.61 121.17L121.88 116.94L120.58 112.66L119.77 108.4L119.49 104.24L119.49 19.12L119.77 15.28L120.58 11.96L121.88 9.17L123.61 6.94L125.74 5.31L128.23 4.28L131.03 3.89L134.09 4.16L137.37 5.12Z" fill="#22302c" stroke="#22302c" stroke-width="6"/>
<path d="M83.07 29.95L85.55 28.92L88.35 28.53L91.41 28.8L94.69 29.76L98.16 31.44L259.17 124.4L262.63 126.72L265.91 129.55L268.97 132.81L271.77 136.43L274.26 140.33L316.93 115.69L314.45 111.79L311.65 108.17L308.59 104.91L305.31 102.08L301.84 99.76L140.83 6.8L137.37 5.12L134.09 4.16L131.03 3.89L128.23 4.28L125.74 5.31Z" fill="#22302c" stroke="#22302c" stroke-width="6"/>
<path d="M274.26 140.33L276.39 144.43L278.12 148.66L279.42 152.94L280.23 157.2L280.51 161.36L280.51 246.48L280.23 250.32L279.42 253.64L278.12 256.43L276.39 258.66L274.26 260.29L316.93 235.65L319.07 234.02L320.8 231.79L322.1 229L322.9 225.68L323.18 221.84L323.18 136.72L322.9 132.56L322.1 128.3L320.8 124.02L319.07 119.79L316.93 115.69Z" fill="#22302c" stroke="#22302c" stroke-width="6"/>
<path d="M83.07 29.95L85.55 28.92L88.35 28.53L91.41 28.8L94.69 29.76L98.16 31.44L259.17 124.4L262.63 126.72L265.91 129.55L268.97 132.81L271.77 136.43L274.26 140.33L316.93 115.69L314.45 111.79L311.65 108.17L308.59 104.91L305.31 102.08L301.84 99.76L140.83 6.8L137.37 5.12L134.09 4.16L131.03 3.89L128.23 4.28L125.74 5.31Z" fill="#b9c49a" stroke="#b9c49a" stroke-width="0.7"/>
<path d="M274.26 140.33L276.39 144.43L278.12 148.66L279.42 152.94L280.23 157.2L280.51 161.36L280.51 246.48L280.23 250.32L279.42 253.64L278.12 256.43L276.39 258.66L274.26 260.29L316.93 235.65L319.07 234.02L320.8 231.79L322.1 229L322.9 225.68L323.18 221.84L323.18 136.72L322.9 132.56L322.1 128.3L320.8 124.02L319.07 119.79L316.93 115.69Z" fill="#8c9468" stroke="#8c9468" stroke-width="0.7"/>
<path d="M98.16 31.44L259.17 124.4C270.95 131.2 280.51 147.75 280.51 161.36L280.51 246.48C280.51 260.09 270.95 265.6 259.17 258.8L98.16 165.84C86.37 159.04 76.82 142.49 76.82 128.88L76.82 43.76C76.82 30.15 86.37 24.64 98.16 31.44Z" fill="#a7ae7b" stroke="#22302c" stroke-width="3"/>
<path d="M100.1 43.76L257.23 134.48C264.73 138.81 270.81 149.34 270.81 158L270.81 238.64C270.81 247.3 264.73 250.81 257.23 246.48L100.1 155.76C92.6 151.43 86.52 140.9 86.52 132.24L86.52 51.6C86.52 42.94 92.6 39.43 100.1 43.76Z" fill="#b9c49a" stroke="#22302c" stroke-width="2"/>
<path d="M139.86 100.88C136.47 89.51 126.28 79.71 118.14 79.71C108.63 79.71 105.92 93.04 110.67 107.54C116.1 124.01 129 140.86 136.47 156.15L139.86 100.88Z" fill="#e8344a"/>
<path d="M139.86 100.88C143.94 88.34 156.16 88.34 165.66 96.96C175.17 106.37 176.53 121.26 171.77 131.06C164.98 144.39 148.01 150.27 136.47 156.15L139.86 100.88Z" fill="#1c3259"/>
<path d="M132.06 112.04C133.11 118.36 131.08 122.53 127.51 121.35C123.95 120.17 120.2 114.08 119.15 107.75C118.1 101.43 120.13 97.26 123.7 98.44C127.26 99.63 131.01 105.71 132.06 112.04ZM126.95 110.34C126.43 107.24 125.41 104.53 124.67 104.28C123.93 104.04 123.74 106.35 124.26 109.45C124.78 112.55 125.8 115.26 126.54 115.51C127.28 115.75 127.47 113.44 126.95 110.34Z" fill="#fff8ea"/>
<path d="M149.28 105.3L153.15 101.26L156.77 102.45L160.18 122.96L162.99 123.89L163.67 127.99L151.23 123.86L150.55 119.76L154.96 121.23L152.83 108.41L151.27 109.54Z" fill="#fff8ea"/>
<path d="M139.86 100.88C143.94 88.34 156.16 88.34 165.66 96.96C175.17 106.37 176.53 121.26 171.77 131.06C164.98 144.39 148.01 150.27 136.47 156.15C129 140.86 116.1 124.01 110.67 107.54C105.92 93.04 108.63 79.71 118.14 79.71C126.28 79.71 136.47 89.51 139.86 100.88Z" fill="none" stroke="#22302c" stroke-width="2"/>
<path d="M202.42 176.76L207.27 179.56C208.61 180.33 209.7 182.21 209.7 183.76L209.7 196.08C209.7 197.63 208.61 198.25 207.27 197.48L202.42 194.68C201.09 193.91 200 192.03 200 190.48L200 178.16C200 176.61 201.09 175.99 202.42 176.76Z" fill="#7ed36f" stroke="#22302c" stroke-width="1.4"/>
<path d="M216.97 185.16L221.82 187.96C223.16 188.73 224.25 190.61 224.25 192.16L224.25 204.48C224.25 206.03 223.16 206.65 221.82 205.88L216.97 203.08C215.63 202.31 214.55 200.43 214.55 198.88L214.55 186.56C214.55 185.01 215.63 184.39 216.97 185.16Z" fill="#7ed36f" stroke="#22302c" stroke-width="1.4"/>
<path d="M231.52 193.56L236.37 196.36C237.71 197.13 238.8 199.01 238.8 200.56L238.8 212.88C238.8 214.43 237.71 215.05 236.37 214.28L231.52 211.48C230.18 210.71 229.1 208.83 229.1 207.28L229.1 194.96C229.1 193.41 230.18 192.79 231.52 193.56Z" fill="#7ed36f" stroke="#22302c" stroke-width="1.4"/>
<path d="M246.07 201.96L250.92 204.76C252.26 205.53 253.35 207.41 253.35 208.96L253.35 221.28C253.35 222.83 252.26 223.45 250.92 222.68L246.07 219.88C244.73 219.11 243.65 217.23 243.65 215.68L243.65 203.36C243.65 201.81 244.73 201.19 246.07 201.96Z" fill="#8c9468" stroke="#22302c" stroke-width="1.4"/>
<path d="M203.88 137.28L252.38 165.28C254.52 166.52 256.26 169.53 256.26 172L256.26 192.16C256.26 194.63 254.52 195.64 252.38 194.4L203.88 166.4C201.74 165.16 200 162.15 200 159.68L200 139.52C200 137.05 201.74 136.04 203.88 137.28Z" fill="#1c3259" stroke="#22302c" stroke-width="2"/>
<path d="M210.1 146.47L215.04 149.32L213.53 151.36L211.11 149.97ZM216.45 151.94L215.99 157.02L214.6 157.68L213.46 155.57L213.8 151.87ZM215.67 160.45L215.21 165.54L212.81 162.7L213.15 159L214.54 158.34ZM221.58 153.1L226.53 155.95L225.01 157.99L222.59 156.6ZM219.86 153.91L222.26 156.75L221.92 160.45L220.53 161.11L219.4 159ZM222.19 160.96L224.62 162.36L225.75 164.47L224.36 165.12L221.94 163.72L220.81 161.61ZM227.16 167.08L226.69 172.17L224.3 169.33L224.64 165.63L226.02 164.97ZM221.54 168.09L223.97 169.48L224.97 172.98L220.03 170.13Z" fill="#fff8ea"/>
<path d="M242.68 168.64L236.86 173.12L240.74 175.36L238.8 182.08L246.56 176.48L242.68 174.24L244.62 169.76Z" fill="#f2b84b"/>
<path d="M289.72 165L313.97 151C314.77 150.54 315.42 150.91 315.42 151.84L315.42 160.8C315.42 161.73 314.77 162.86 313.97 163.32L289.72 177.32C288.92 177.78 288.27 177.41 288.27 176.48L288.27 167.52C288.27 166.59 288.92 165.46 289.72 165Z" fill="#1f2a2e" stroke="#22302c" stroke-width="1.6"/>
<path d="M292.15 166.4L311.54 155.2L311.54 159.12L292.15 170.32L292.15 166.4Z" fill="#2e4c80"/>
<path d="M294.08 187.12L309.6 178.16C311.75 176.92 313.48 177.93 313.48 180.4L313.48 180.4C313.48 182.87 311.75 185.88 309.6 187.12L294.08 196.08C291.94 197.32 290.21 196.31 290.21 193.84L290.21 193.84C290.21 191.37 291.94 188.36 294.08 187.12Z" fill="#1f2a2e" stroke="#22302c" stroke-width="1.6"/>
<path d="M294.08 207.28L309.6 198.32C311.75 197.08 313.48 198.09 313.48 200.56L313.48 200.56C313.48 203.03 311.75 206.04 309.6 207.28L294.08 216.24C291.94 217.48 290.21 216.47 290.21 214L290.21 214C290.21 211.53 291.94 208.52 294.08 207.28Z" fill="#1f2a2e" stroke="#22302c" stroke-width="1.6"/>
<path d="M241.71 77.36L253.35 84.08L254.07 84.57L254.63 85.11L255.03 85.68L255.28 86.27L255.36 86.88L255.28 87.49L255.03 88.08L254.63 88.65L254.07 89.19L253.35 89.68L247.53 93.04L246.68 93.46L245.75 93.78L244.76 94.01L243.73 94.15L242.68 94.2L241.63 94.15L240.6 94.01L239.61 93.78L238.68 93.46L237.83 93.04L226.19 86.32L225.47 85.83L224.9 85.29L224.5 84.72L224.26 84.13L224.18 83.52L224.26 82.91L224.5 82.32L224.9 81.75L225.47 81.21L226.19 80.72L232.01 77.36L232.86 76.94L233.79 76.62L234.78 76.39L235.81 76.25L236.86 76.2L237.91 76.25L238.94 76.39L239.93 76.62L240.86 76.94Z" fill="#22302c" stroke="#22302c" stroke-width="4"/>
<path d="M241.71 80.72L253.35 87.44L254.07 87.93L254.63 88.47L255.03 89.04L255.28 89.63L255.36 90.24L255.28 90.85L255.03 91.44L254.63 92.01L254.07 92.55L253.35 93.04L247.53 96.4L246.68 96.82L245.75 97.14L244.76 97.37L243.73 97.51L242.68 97.56L241.63 97.51L240.6 97.37L239.61 97.14L238.68 96.82L237.83 96.4L226.19 89.68L225.47 89.19L224.9 88.65L224.5 88.08L224.26 87.49L224.18 86.88L224.26 86.27L224.5 85.68L224.9 85.11L225.47 84.57L226.19 84.08L232.01 80.72L232.86 80.3L233.79 79.98L234.78 79.75L235.81 79.61L236.86 79.56L237.91 79.61L238.94 79.75L239.93 79.98L240.86 80.3Z" fill="#22302c" stroke="#22302c" stroke-width="4"/>
<path d="M242.68 97.56L241.63 97.51L240.6 97.37L239.61 97.14L238.68 96.82L237.83 96.4L226.19 89.68L225.47 89.19L224.9 88.65L224.5 88.08L224.26 87.49L224.18 86.88L224.18 83.52L224.26 84.13L224.5 84.72L224.9 85.29L225.47 85.83L226.19 86.32L237.83 93.04L238.68 93.46L239.61 93.78L240.6 94.01L241.63 94.15L242.68 94.2Z" fill="#22302c" stroke="#22302c" stroke-width="4"/>
<path d="M255.36 90.24L255.28 90.85L255.03 91.44L254.63 92.01L254.07 92.55L253.35 93.04L247.53 96.4L246.68 96.82L245.75 97.14L244.76 97.37L243.73 97.51L242.68 97.56L242.68 94.2L243.73 94.15L244.76 94.01L245.75 93.78L246.68 93.46L247.53 93.04L253.35 89.68L254.07 89.19L254.63 88.65L255.03 88.08L255.28 87.49L255.36 86.88Z" fill="#22302c" stroke="#22302c" stroke-width="4"/>
<path d="M242.68 97.56L241.63 97.51L240.6 97.37L239.61 97.14L238.68 96.82L237.83 96.4L226.19 89.68L225.47 89.19L224.9 88.65L224.5 88.08L224.26 87.49L224.18 86.88L224.18 83.52L224.26 84.13L224.5 84.72L224.9 85.29L225.47 85.83L226.19 86.32L237.83 93.04L238.68 93.46L239.61 93.78L240.6 94.01L241.63 94.15L242.68 94.2Z" fill="#e8344a" stroke="#e8344a" stroke-width="0.7"/>
<path d="M255.36 90.24L255.28 90.85L255.03 91.44L254.63 92.01L254.07 92.55L253.35 93.04L247.53 96.4L246.68 96.82L245.75 97.14L244.76 97.37L243.73 97.51L242.68 97.56L242.68 94.2L243.73 94.15L244.76 94.01L245.75 93.78L246.68 93.46L247.53 93.04L253.35 89.68L254.07 89.19L254.63 88.65L255.03 88.08L255.28 87.49L255.36 86.88Z" fill="#b8263a" stroke="#b8263a" stroke-width="0.7"/>
<path d="M241.71 77.36L253.35 84.08C256.03 85.63 256.03 88.13 253.35 89.68L247.53 93.04C244.85 94.59 240.51 94.59 237.83 93.04L226.19 86.32C223.51 84.77 223.51 82.27 226.19 80.72L232.01 77.36C234.69 75.81 239.03 75.81 241.71 77.36Z" fill="#e8344a" stroke="#22302c" stroke-width="2"/>
</g></svg>